<svg width="190" height="48" viewBox="0 0 190 48" fill="none" xmlns="http://www.w3.org/2000/svg">
<g opacity="0.84">
<path d="M190 9.0998V39.9002C190 42.1637 188.171 44 185.913 44H4.08701C1.8308 44 0 42.1637 0 39.9002V9.0998C0 6.83633 1.82882 5 4.08701 5H185.913C188.169 5 190 6.83633 190 9.0998ZM187.285 38.7685V10.2315C187.285 8.8483 186.167 7.72655 184.79 7.72655H5.21014C3.83256 7.72655 2.71539 8.8483 2.71539 10.2315V38.7685C2.71539 40.1517 3.83256 41.2735 5.21014 41.2735H184.79C186.167 41.2735 187.285 40.1517 187.285 38.7685Z" fill="white" fill-opacity="0.5"/>
<path d="M29.1915 19.1916V29.3912H24.1066V24.0359H11.6468V29.3912H6.56186V19.5749C6.56186 19.5469 6.9157 19.1916 6.94352 19.1916H29.1934H29.1915Z" fill="white" fill-opacity="0.5"/>
<path d="M113.106 16.6427H86.9144C87.0039 16.3872 86.66 16.0858 86.66 16.006V11.0339H110.182C110.405 11.0339 111.719 11.8244 111.961 12.0539C113.263 13.2874 113.166 14.982 113.106 16.6427Z" fill="white" fill-opacity="0.5"/>
<path d="M91.4924 26.0758H107.385C107.727 26.0758 109.292 24.507 109.292 24.1637V19.1916H113.106V26.4591C113.106 27.2595 110.794 29.3912 109.928 29.3912H87.0417C87.0138 29.3912 86.66 29.0359 86.66 29.008V19.5729C86.66 19.5449 87.0138 19.1896 87.0417 19.1896H91.4924V26.0758Z" fill="white" fill-opacity="0.5"/>
<path d="M58.4346 16.6427H31.9884C31.6842 14.1297 32.4038 11.8723 34.9681 11.0878C41.4167 11.4212 48.6584 10.4571 55.0135 11.02C58.0231 11.2874 58.7825 13.984 58.4346 16.6427Z" fill="white" fill-opacity="0.5"/>
<path d="M35.803 19.1916V23.9082C35.803 24.1118 36.6717 25.3533 36.944 25.5689C37.5006 26.008 37.775 26.0319 38.4608 26.0878C42.9434 26.4451 47.907 25.8104 52.4452 26.0619C53.2702 25.9581 54.6199 25.022 54.6199 24.1637V19.1916H58.4346V26.4591C58.4346 26.5609 57.5798 28.0419 57.4009 28.2275C56.8225 28.8224 55.5423 29.2715 54.7213 29.3653C48.724 29.0299 42.0946 29.9002 36.1728 29.4012C34.8926 29.2934 33.3739 28.6886 32.6344 27.5948C32.5092 27.4092 31.9884 26.2954 31.9884 26.2036V19.1916H35.803Z" fill="white" fill-opacity="0.5"/>
<path d="M138.789 29.3912H134.211L131.947 24.1936C131.883 23.986 131.72 24.0399 131.553 24.02C129.116 23.7365 126.073 24.2315 123.57 24.0758C122.837 25.8723 122.095 27.7365 121.117 29.3912H116.666C116.619 29.1038 116.698 28.8802 116.782 28.6148C117.426 26.5589 119.255 22.6447 120.262 20.6307C120.583 19.99 120.761 19.1098 121.61 19.1776L134.468 19.3174L135.024 20.0339C136.096 23.2156 137.924 26.1597 138.787 29.3912H138.789Z" fill="white" fill-opacity="0.5"/>
<path d="M183.798 29.3912H179.22L176.938 24.1597L168.535 24.1577L166.251 29.3912H161.421L165.718 19.3473L166.114 19.1737L179.48 19.3154L183.798 29.3912Z" fill="white" fill-opacity="0.5"/>
<path d="M159.131 11.0319H141.332V16.6627H159.131V11.0319Z" fill="white" fill-opacity="0.5"/>
<path d="M74.5819 19.1916L78.7742 24.0359C79.2712 23.3653 78.2415 19.1916 79.1579 19.1916H82.8453V29.3912H75.7249L69.6222 19.1916H74.5819Z" fill="white" fill-opacity="0.5"/>
<path d="M122.26 16.6427C121.889 16.3154 124.093 11.8683 124.332 11.0719C126.357 11.1876 128.822 10.7864 130.79 11.016C130.959 11.0359 131.122 10.982 131.184 11.1896L133.448 16.6427H122.258H122.26Z" fill="white" fill-opacity="0.5"/>
<path d="M178.204 16.6427H167.015L169.297 11.1537H175.92C176.769 12.8862 177.793 14.7585 178.204 16.6427Z" fill="white" fill-opacity="0.5"/>
<path d="M69.3697 11.0319C70.0178 13.0479 71.7671 14.6148 72.4211 16.6407H62.5037V11.0319H69.3697Z" fill="white" fill-opacity="0.5"/>
<path d="M152.267 19.1916H147.943V29.3912H152.267V19.1916Z" fill="white" fill-opacity="0.5"/>
<path d="M66.5728 19.1916H62.5037V29.3912H66.5728V19.1916Z" fill="white" fill-opacity="0.5"/>
<path d="M29.1915 11.0319H24.1066V16.6407H29.1915V11.0319Z" fill="white" fill-opacity="0.5"/>
<path d="M11.6468 11.0319V16.6407H6.94154C6.91371 16.6407 6.55987 16.2854 6.55987 16.2575V11.0299H11.6448L11.6468 11.0319Z" fill="white" fill-opacity="0.5"/>
<path d="M82.8453 16.6407H79.1579C79.1301 16.6407 78.7762 16.2854 78.7762 16.2575V11.0299H82.8453V16.6407Z" fill="white" fill-opacity="0.5"/>
<path d="M8.73457 35.5988C8.73457 36.4571 8.60934 37.0978 8.35887 37.521C8.1084 37.9461 7.71282 38.1577 7.1761 38.1577C6.63939 38.1577 6.26567 37.9541 6.00924 37.5469C5.75281 37.1397 5.61962 36.5269 5.60769 35.7106V34.7126C5.60769 33.8623 5.73293 33.2295 5.98538 32.8124C6.23784 32.3952 6.63143 32.1856 7.16616 32.1856C7.70089 32.1856 8.08256 32.3832 8.33502 32.7804C8.58747 33.1776 8.72066 33.7784 8.73457 34.5808V35.5988ZM8.02491 34.5888C8.02491 33.9741 7.95732 33.521 7.82016 33.2295C7.683 32.9381 7.46633 32.7924 7.16616 32.7924C6.866 32.7924 6.66125 32.9361 6.52409 33.2216C6.38693 33.507 6.31735 33.9401 6.31139 34.517V35.7146C6.31139 36.3273 6.38295 36.7864 6.52409 37.0938C6.66523 37.4012 6.8819 37.5549 7.17411 37.5549C7.46633 37.5549 7.67505 37.4092 7.81221 37.1198C7.94937 36.8303 8.01895 36.3852 8.02491 35.7904V34.5888Z" fill="white" fill-opacity="0.5"/>
<path d="M11.0683 38.0798H10.3547V33.1557L9.12816 33.7026V33.0319L10.955 32.2375H11.0663V38.0798H11.0683Z" fill="white" fill-opacity="0.5"/>
<path d="M13.7161 38.0798H13.0025V33.1557L11.776 33.7026V33.0319L13.6028 32.2375H13.7141V38.0798H13.7161Z" fill="white" fill-opacity="0.5"/>
<path d="M17.7514 35.5988C17.7514 36.4571 17.6262 37.0978 17.3757 37.521C17.1253 37.9441 16.7297 38.1577 16.193 38.1577C15.6562 38.1577 15.2825 37.9541 15.0261 37.5469C14.7697 37.1397 14.6365 36.5269 14.6245 35.7106V34.7126C14.6245 33.8623 14.7498 33.2295 15.0022 32.8124C15.2547 32.3952 15.6483 32.1856 16.183 32.1856C16.7177 32.1856 17.0994 32.3832 17.3519 32.7804C17.6043 33.1776 17.7375 33.7784 17.7514 34.5808V35.5988ZM17.0438 34.5888C17.0438 33.9741 16.9762 33.521 16.839 33.2295C16.7018 32.9381 16.4852 32.7924 16.185 32.7924C15.8848 32.7924 15.6801 32.9361 15.5429 33.2216C15.4058 33.507 15.3362 33.9401 15.3302 34.517V35.7146C15.3302 36.3273 15.4018 36.7864 15.5429 37.0938C15.6841 37.4012 15.9007 37.5549 16.193 37.5549C16.4852 37.5549 16.6939 37.4092 16.8311 37.1198C16.9682 36.8303 17.0378 36.3852 17.0438 35.7904V34.5888Z" fill="white" fill-opacity="0.5"/>
<path d="M20.0852 38.0798H19.3715V33.1557L18.145 33.7026V33.0319L19.9718 32.2375H20.0832V38.0798H20.0852Z" fill="white" fill-opacity="0.5"/>
<path d="M24.1205 35.5988C24.1205 36.4571 23.9952 37.0978 23.7448 37.521C23.4943 37.9461 23.0987 38.1577 22.562 38.1577C22.0253 38.1577 21.6516 37.9541 21.3951 37.5469C21.1387 37.1397 21.0055 36.5269 20.9936 35.7106V34.7126C20.9936 33.8623 21.1188 33.2295 21.3713 32.8124C21.6237 32.3952 22.0173 32.1856 22.5521 32.1856C23.0868 32.1856 23.4685 32.3832 23.7209 32.7804C23.9734 33.1776 24.1066 33.7784 24.1205 34.5808V35.5988ZM23.4108 34.5888C23.4108 33.9741 23.3432 33.521 23.2061 33.2295C23.0689 32.9381 22.8522 32.7924 22.5521 32.7924C22.2519 32.7924 22.0472 32.9361 21.91 33.2216C21.7728 33.507 21.7033 33.9401 21.6973 34.517V35.7146C21.6973 36.3273 21.7689 36.7864 21.91 37.0938C22.0511 37.4012 22.2678 37.5549 22.56 37.5549C22.8522 37.5549 23.061 37.4092 23.1981 37.1198C23.3353 36.8303 23.4049 36.3852 23.4108 35.7904V34.5888Z" fill="white" fill-opacity="0.5"/>
<path d="M27.8397 35.5988C27.8397 36.4571 27.7145 37.0978 27.464 37.521C27.2136 37.9441 26.818 38.1577 26.2813 38.1577C25.7445 38.1577 25.3708 37.9541 25.1144 37.5469C24.858 37.1397 24.7248 36.5269 24.7129 35.7106V34.7126C24.7129 33.8623 24.8381 33.2295 25.0905 32.8124C25.343 32.3952 25.7366 32.1856 26.2713 32.1856C26.8061 32.1856 27.1877 32.3832 27.4402 32.7804C27.6926 33.1776 27.8258 33.7784 27.8397 34.5808V35.5988ZM27.1301 34.5888C27.1301 33.9741 27.0625 33.521 26.9253 33.2295C26.7882 32.9381 26.5715 32.7924 26.2713 32.7924C25.9712 32.7924 25.7664 32.9361 25.6292 33.2216C25.4921 33.507 25.4225 33.9401 25.4165 34.517V35.7146C25.4165 36.3273 25.4881 36.7864 25.6292 37.0938C25.7704 37.4012 25.9871 37.5549 26.2793 37.5549C26.5715 37.5549 26.7802 37.4092 26.9174 37.1198C27.0545 36.8303 27.1241 36.3852 27.1301 35.7904V34.5888Z" fill="white" fill-opacity="0.5"/>
<path d="M31.559 35.5988C31.559 36.4571 31.4337 37.0978 31.1833 37.521C30.9328 37.9441 30.5372 38.1577 30.0005 38.1577C29.4638 38.1577 29.0901 37.9541 28.8337 37.5469C28.5772 37.1397 28.444 36.5269 28.4321 35.7106V34.7126C28.4321 33.8623 28.5573 33.2295 28.8098 32.8124C29.0623 32.3952 29.4558 32.1856 29.9906 32.1856C30.5253 32.1856 30.907 32.3832 31.1594 32.7804C31.4119 33.1776 31.5451 33.7784 31.559 34.5808V35.5988ZM30.8493 34.5888C30.8493 33.9741 30.7817 33.521 30.6446 33.2295C30.5074 32.9381 30.2907 32.7924 29.9906 32.7924C29.6904 32.7924 29.4857 32.9361 29.3485 33.2216C29.2113 33.507 29.1418 33.9401 29.1358 34.517V35.7146C29.1358 36.3273 29.2074 36.7864 29.3485 37.0938C29.4896 37.4012 29.7063 37.5549 29.9985 37.5549C30.2907 37.5549 30.4995 37.4092 30.6366 37.1198C30.7738 36.8303 30.8434 36.3852 30.8493 35.7904V34.5888Z" fill="white" fill-opacity="0.5"/>
<path d="M35.2762 35.5988C35.2762 36.4571 35.151 37.0978 34.9005 37.521C34.6501 37.9441 34.2545 38.1577 33.7178 38.1577C33.1811 38.1577 32.8073 37.9541 32.5509 37.5469C32.2945 37.1397 32.1613 36.5269 32.1494 35.7106V34.7126C32.1494 33.8623 32.2746 33.2295 32.5271 32.8124C32.7795 32.3952 33.1731 32.1856 33.7078 32.1856C34.2426 32.1856 34.6242 32.3832 34.8767 32.7804C35.1291 33.1776 35.2623 33.7784 35.2762 34.5808V35.5988ZM34.5686 34.5888C34.5686 33.9741 34.501 33.521 34.3638 33.2295C34.2267 32.9381 34.01 32.7924 33.7098 32.7924C33.4097 32.7924 33.2049 32.9361 33.0678 33.2216C32.9306 33.507 32.861 33.9401 32.8551 34.517V35.7146C32.8551 36.3273 32.9266 36.7864 33.0678 37.0938C33.2089 37.4012 33.4256 37.5549 33.7178 37.5549C34.01 37.5549 34.2187 37.4092 34.3559 37.1198C34.493 36.8303 34.5626 36.3852 34.5686 35.7904V34.5888Z" fill="white" fill-opacity="0.5"/>
<path d="M37.61 38.0798H36.8963V33.1557L35.6698 33.7026V33.0319L37.4967 32.2375H37.608V38.0798H37.61Z" fill="white" fill-opacity="0.5"/>
<path d="M40.2578 38.0798H39.5441V33.1557L38.3176 33.7026V33.0319L40.1445 32.2375H40.2558V38.0798H40.2578Z" fill="white" fill-opacity="0.5"/>
<path d="M44.2951 35.5988C44.2951 36.4571 44.1699 37.0978 43.9194 37.521C43.6689 37.9441 43.2733 38.1577 42.7366 38.1577C42.1999 38.1577 41.8262 37.9541 41.5698 37.5469C41.3133 37.1397 41.1801 36.5269 41.1682 35.7106V34.7126C41.1682 33.8623 41.2934 33.2295 41.5459 32.8124C41.7984 32.3952 42.192 32.1856 42.7267 32.1856C43.2614 32.1856 43.6431 32.3832 43.8955 32.7804C44.148 33.1776 44.2812 33.7784 44.2951 34.5808V35.5988ZM43.5854 34.5888C43.5854 33.9741 43.5178 33.521 43.3807 33.2295C43.2435 32.9381 43.0268 32.7924 42.7267 32.7924C42.4265 32.7924 42.2218 32.9361 42.0846 33.2216C41.9474 33.507 41.8779 33.9401 41.8719 34.517V35.7146C41.8719 36.3273 41.9435 36.7864 42.0846 37.0938C42.2257 37.4012 42.4424 37.5549 42.7346 37.5549C43.0268 37.5549 43.2356 37.4092 43.3727 37.1198C43.5099 36.8303 43.5795 36.3852 43.5854 35.7904V34.5888Z" fill="white" fill-opacity="0.5"/>
<path d="M46.6268 38.0798H45.9132V33.1557L44.6867 33.7026V33.0319L46.5135 32.2375H46.6248V38.0798H46.6268Z" fill="white" fill-opacity="0.5"/>
<path d="M49.2766 38.0798H48.563V33.1557L47.3365 33.7026V33.0319L49.1633 32.2375H49.2746V38.0798H49.2766Z" fill="white" fill-opacity="0.5"/>
<path d="M51.9244 38.0798H51.2108V33.1557L49.9843 33.7026V33.0319L51.8111 32.2375H51.9224V38.0798H51.9244Z" fill="white" fill-opacity="0.5"/>
<path d="M54.5742 38.0798H53.8606V33.1557L52.6341 33.7026V33.0319L54.4609 32.2375H54.5722V38.0798H54.5742Z" fill="white" fill-opacity="0.5"/>
<path d="M58.6096 35.5988C58.6096 36.4571 58.4843 37.0978 58.2338 37.521C57.9834 37.9441 57.5878 38.1577 57.0511 38.1577C56.5144 38.1577 56.1406 37.9541 55.8842 37.5469C55.6278 37.1397 55.4946 36.5269 55.4827 35.7106V34.7126C55.4827 33.8623 55.6079 33.2295 55.8604 32.8124C56.1128 32.3952 56.5064 32.1856 57.0411 32.1856C57.5759 32.1856 57.9575 32.3832 58.21 32.7804C58.4624 33.1776 58.5956 33.7784 58.6096 34.5808V35.5988ZM57.8999 34.5888C57.8999 33.9741 57.8323 33.521 57.6951 33.2295C57.558 32.9381 57.3413 32.7924 57.0411 32.7924C56.741 32.7924 56.5362 32.9361 56.3991 33.2216C56.2619 33.507 56.1923 33.9401 56.1864 34.517V35.7146C56.1864 36.3273 56.2579 36.7864 56.3991 37.0938C56.5402 37.4012 56.7569 37.5549 57.0491 37.5549C57.3413 37.5549 57.55 37.4092 57.6872 37.1198C57.8243 36.8303 57.8939 36.3852 57.8999 35.7904V34.5888Z" fill="white" fill-opacity="0.5"/>
<path d="M60.9413 38.0798H60.2276V33.1557L59.0011 33.7026V33.0319L60.828 32.2375H60.9393V38.0798H60.9413Z" fill="white" fill-opacity="0.5"/>
<path d="M63.5911 38.0798H62.8774V33.1557L61.6509 33.7026V33.0319L63.4778 32.2375H63.5891V38.0798H63.5911Z" fill="white" fill-opacity="0.5"/>
<path d="M67.6264 35.5988C67.6264 36.4571 67.5012 37.0978 67.2507 37.521C67.0002 37.9441 66.6047 38.1577 66.0679 38.1577C65.5312 38.1577 65.1575 37.9541 64.9011 37.5469C64.6446 37.1397 64.5115 36.5269 64.4995 35.7106V34.7126C64.4995 33.8623 64.6248 33.2295 64.8772 32.8124C65.1297 32.3952 65.5233 32.1856 66.058 32.1856C66.5927 32.1856 66.9744 32.3832 67.2268 32.7804C67.4793 33.1776 67.6125 33.7784 67.6264 34.5808V35.5988ZM66.9167 34.5888C66.9167 33.9741 66.8492 33.521 66.712 33.2295C66.5748 32.9381 66.3582 32.7924 66.058 32.7924C65.7578 32.7924 65.5531 32.9361 65.4159 33.2216C65.2788 33.507 65.2092 33.9401 65.2032 34.517V35.7146C65.2032 36.3273 65.2748 36.7864 65.4159 37.0938C65.5571 37.4012 65.7737 37.5549 66.0659 37.5549C66.3582 37.5549 66.5669 37.4092 66.704 37.1198C66.8412 36.8303 66.9108 36.3852 66.9167 35.7904V34.5888Z" fill="white" fill-opacity="0.5"/>
<path d="M69.9601 38.0798H69.2465V33.1557L68.02 33.7026V33.0319L69.8468 32.2375H69.9581V38.0798H69.9601Z" fill="white" fill-opacity="0.5"/>
<path d="M72.6079 38.0798H71.8943V33.1557L70.6678 33.7026V33.0319L72.4946 32.2375H72.6059V38.0798H72.6079Z" fill="white" fill-opacity="0.5"/>
<path d="M75.2577 38.0798H74.5441V33.1557L73.3176 33.7026V33.0319L75.1444 32.2375H75.2557V38.0798H75.2577Z" fill="white" fill-opacity="0.5"/>
<path d="M79.2931 35.5988C79.2931 36.4571 79.1678 37.0978 78.9173 37.521C78.6669 37.9441 78.2713 38.1577 77.7346 38.1577C77.1979 38.1577 76.8242 37.9541 76.5677 37.5469C76.3113 37.1397 76.1781 36.5269 76.1662 35.7106V34.7126C76.1662 33.8623 76.2914 33.2295 76.5439 32.8124C76.7963 32.3952 77.1899 32.1856 77.7246 32.1856C78.2594 32.1856 78.641 32.3832 78.8935 32.7804C79.146 33.1776 79.2791 33.7784 79.2931 34.5808V35.5988ZM78.5834 34.5888C78.5834 33.9741 78.5158 33.521 78.3786 33.2295C78.2415 32.9381 78.0248 32.7924 77.7246 32.7924C77.4245 32.7924 77.2197 32.9361 77.0826 33.2216C76.9454 33.507 76.8758 33.9401 76.8699 34.517V35.7146C76.8699 36.3273 76.9414 36.7864 77.0826 37.0938C77.2237 37.4012 77.4404 37.5549 77.7326 37.5549C78.0248 37.5549 78.2335 37.4092 78.3707 37.1198C78.5079 36.8303 78.5774 36.3852 78.5834 35.7904V34.5888Z" fill="white" fill-opacity="0.5"/>
<path d="M83.0123 35.5988C83.0123 36.4571 82.8871 37.0978 82.6366 37.521C82.3861 37.9461 81.9906 38.1577 81.4538 38.1577C80.9171 38.1577 80.5434 37.9541 80.287 37.5469C80.0305 37.1397 79.8974 36.5269 79.8854 35.7106V34.7126C79.8854 33.8623 80.0107 33.2295 80.2631 32.8124C80.5156 32.3952 80.9092 32.1856 81.4439 32.1856C81.9786 32.1856 82.3603 32.3832 82.6127 32.7804C82.8652 33.1776 82.9984 33.7784 83.0123 34.5808V35.5988ZM82.3026 34.5888C82.3026 33.9741 82.2351 33.521 82.0979 33.2295C81.9607 32.9381 81.7441 32.7924 81.4439 32.7924C81.1437 32.7924 80.939 32.9361 80.8018 33.2216C80.6647 33.507 80.5951 33.9401 80.5891 34.517V35.7146C80.5891 36.3273 80.6607 36.7864 80.8018 37.0938C80.943 37.4012 81.1596 37.5549 81.4518 37.5549C81.7441 37.5549 81.9528 37.4092 82.09 37.1198C82.2271 36.8303 82.2967 36.3852 82.3026 35.7904V34.5888Z" fill="white" fill-opacity="0.5"/>
<path d="M85.344 38.0798H84.6304V33.1557L83.4039 33.7026V33.0319L85.2307 32.2375H85.3421V38.0798H85.344Z" fill="white" fill-opacity="0.5"/>
<path d="M87.9938 38.0798H87.2802V33.1557L86.0537 33.7026V33.0319L87.8805 32.2375H87.9919V38.0798H87.9938Z" fill="white" fill-opacity="0.5"/>
<path d="M92.0292 35.5988C92.0292 36.4571 91.9039 37.0978 91.6535 37.521C91.403 37.9441 91.0074 38.1577 90.4707 38.1577C89.934 38.1577 89.5603 37.9541 89.3038 37.5469C89.0474 37.1397 88.9142 36.5269 88.9023 35.7106V34.7126C88.9023 33.8623 89.0275 33.2295 89.28 32.8124C89.5324 32.3952 89.926 32.1856 90.4607 32.1856C90.9955 32.1856 91.3771 32.3832 91.6296 32.7804C91.8821 33.1776 92.0152 33.7784 92.0292 34.5808V35.5988ZM91.3195 34.5888C91.3195 33.9741 91.2519 33.521 91.1148 33.2295C90.9776 32.9381 90.7609 32.7924 90.4607 32.7924C90.1606 32.7924 89.9558 32.9361 89.8187 33.2216C89.6815 33.507 89.6119 33.9401 89.606 34.517V35.7146C89.606 36.3273 89.6775 36.7864 89.8187 37.0938C89.9598 37.4012 90.1765 37.5549 90.4687 37.5549C90.7609 37.5549 90.9696 37.4092 91.1068 37.1198C91.244 36.8303 91.3135 36.3852 91.3195 35.7904V34.5888Z" fill="white" fill-opacity="0.5"/>
<path d="M95.7484 35.5988C95.7484 36.4571 95.6232 37.0978 95.3727 37.521C95.1222 37.9441 94.7267 38.1577 94.1899 38.1577C93.6532 38.1577 93.2795 37.9541 93.0231 37.5469C92.7666 37.1397 92.6335 36.5269 92.6215 35.7106V34.7126C92.6215 33.8623 92.7468 33.2295 92.9992 32.8124C93.2517 32.3952 93.6453 32.1856 94.18 32.1856C94.7147 32.1856 95.0964 32.3832 95.3489 32.7804C95.6013 33.1776 95.7345 33.7784 95.7484 34.5808V35.5988ZM95.0387 34.5888C95.0387 33.9741 94.9712 33.521 94.834 33.2295C94.6968 32.9381 94.4802 32.7924 94.18 32.7924C93.8798 32.7924 93.6751 32.9361 93.5379 33.2216C93.4008 33.507 93.3312 33.9401 93.3252 34.517V35.7146C93.3252 36.3273 93.3968 36.7864 93.5379 37.0938C93.6791 37.4012 93.8957 37.5549 94.188 37.5549C94.4802 37.5549 94.6889 37.4092 94.826 37.1198C94.9632 36.8303 95.0328 36.3852 95.0387 35.7904V34.5888Z" fill="white" fill-opacity="0.5"/>
<path d="M98.0802 38.0798H97.3665V33.1557L96.14 33.7026V33.0319L97.9668 32.2375H98.0782V38.0798H98.0802Z" fill="white" fill-opacity="0.5"/>
<path d="M102.115 35.5988C102.115 36.4571 101.99 37.0978 101.74 37.521C101.489 37.9441 101.094 38.1577 100.557 38.1577C100.02 38.1577 99.6466 37.9541 99.3901 37.5469C99.1337 37.1397 99.0005 36.5269 98.9886 35.7106V34.7126C98.9886 33.8623 99.1138 33.2295 99.3663 32.8124C99.6187 32.3952 100.012 32.1856 100.547 32.1856C101.082 32.1856 101.463 32.3832 101.716 32.7804C101.968 33.1776 102.102 33.7784 102.115 34.5808V35.5988ZM101.406 34.5888C101.406 33.9741 101.338 33.521 101.201 33.2295C101.064 32.9381 100.847 32.7924 100.547 32.7924C100.247 32.7924 100.042 32.9361 99.905 33.2216C99.7678 33.507 99.6983 33.9401 99.6923 34.517V35.7146C99.6923 36.3273 99.7639 36.7864 99.905 37.0938C100.046 37.4012 100.263 37.5549 100.555 37.5549C100.847 37.5549 101.056 37.4092 101.193 37.1198C101.33 36.8303 101.4 36.3852 101.406 35.7904V34.5888Z" fill="white" fill-opacity="0.5"/>
<path d="M105.835 35.5988C105.835 36.4571 105.709 37.0978 105.459 37.521C105.209 37.9441 104.813 38.1577 104.276 38.1577C103.74 38.1577 103.366 37.9541 103.109 37.5469C102.853 37.1397 102.72 36.5269 102.708 35.7106V34.7126C102.708 33.8623 102.833 33.2295 103.086 32.8124C103.338 32.3952 103.732 32.1856 104.266 32.1856C104.801 32.1856 105.183 32.3832 105.435 32.7804C105.688 33.1776 105.821 33.7784 105.835 34.5808V35.5988ZM105.125 34.5888C105.125 33.9741 105.057 33.521 104.92 33.2295C104.783 32.9381 104.566 32.7924 104.266 32.7924C103.966 32.7924 103.761 32.9361 103.624 33.2216C103.487 33.507 103.418 33.9401 103.412 34.517V35.7146C103.412 36.3273 103.483 36.7864 103.624 37.0938C103.765 37.4012 103.982 37.5549 104.274 37.5549C104.566 37.5549 104.775 37.4092 104.912 37.1198C105.05 36.8303 105.119 36.3852 105.125 35.7904V34.5888Z" fill="white" fill-opacity="0.5"/>
<path d="M109.554 35.5988C109.554 36.4571 109.429 37.0978 109.178 37.521C108.928 37.9461 108.532 38.1577 107.996 38.1577C107.459 38.1577 107.085 37.9541 106.829 37.5469C106.572 37.1397 106.439 36.5269 106.427 35.7106V34.7126C106.427 33.8623 106.552 33.2295 106.805 32.8124C107.057 32.3952 107.451 32.1856 107.986 32.1856C108.52 32.1856 108.902 32.3832 109.154 32.7804C109.407 33.1776 109.54 33.7784 109.554 34.5808V35.5988ZM108.844 34.5888C108.844 33.9741 108.777 33.521 108.64 33.2295C108.502 32.9381 108.286 32.7924 107.986 32.7924C107.685 32.7924 107.481 32.9361 107.343 33.2216C107.206 33.507 107.137 33.9401 107.131 34.517V35.7146C107.131 36.3273 107.202 36.7864 107.343 37.0938C107.485 37.4012 107.701 37.5549 107.994 37.5549C108.286 37.5549 108.494 37.4092 108.632 37.1198C108.769 36.8303 108.838 36.3852 108.844 35.7904V34.5888Z" fill="white" fill-opacity="0.5"/>
<path d="M111.886 38.0798H111.172V33.1557L109.946 33.7026V33.0319L111.772 32.2375H111.884V38.0798H111.886Z" fill="white" fill-opacity="0.5"/>
<path d="M114.536 38.0798H113.822V33.1557L112.595 33.7026V33.0319L114.422 32.2375H114.534V38.0798H114.536Z" fill="white" fill-opacity="0.5"/>
<path d="M118.571 35.5988C118.571 36.4571 118.446 37.0978 118.195 37.521C117.945 37.9441 117.549 38.1577 117.012 38.1577C116.476 38.1577 116.102 37.9541 115.846 37.5469C115.589 37.1397 115.456 36.5269 115.444 35.7106V34.7126C115.444 33.8623 115.569 33.2295 115.822 32.8124C116.074 32.3952 116.468 32.1856 117.002 32.1856C117.537 32.1856 117.919 32.3832 118.171 32.7804C118.424 33.1776 118.557 33.7784 118.571 34.5808V35.5988ZM117.861 34.5888C117.861 33.9741 117.794 33.521 117.656 33.2295C117.519 32.9381 117.303 32.7924 117.002 32.7924C116.702 32.7924 116.498 32.9361 116.36 33.2216C116.223 33.507 116.154 33.9401 116.148 34.517V35.7146C116.148 36.3273 116.219 36.7864 116.36 37.0938C116.501 37.4012 116.718 37.5549 117.01 37.5549C117.303 37.5549 117.511 37.4092 117.648 37.1198C117.786 36.8303 117.855 36.3852 117.861 35.7904V34.5888Z" fill="white" fill-opacity="0.5"/>
<path d="M122.29 35.5988C122.29 36.4571 122.165 37.0978 121.914 37.521C121.664 37.9441 121.268 38.1577 120.732 38.1577C120.195 38.1577 119.821 37.9541 119.565 37.5469C119.308 37.1397 119.175 36.5269 119.163 35.7106V34.7126C119.163 33.8623 119.288 33.2295 119.541 32.8124C119.793 32.3952 120.187 32.1856 120.722 32.1856C121.256 32.1856 121.638 32.3832 121.891 32.7804C122.143 33.1776 122.276 33.7784 122.29 34.5808V35.5988ZM121.58 34.5888C121.58 33.9741 121.513 33.521 121.376 33.2295C121.239 32.9381 121.022 32.7924 120.722 32.7924C120.422 32.7924 120.217 32.9361 120.08 33.2216C119.942 33.507 119.873 33.9401 119.867 34.517V35.7146C119.867 36.3273 119.938 36.7864 120.08 37.0938C120.221 37.4012 120.437 37.5549 120.73 37.5549C121.022 37.5549 121.231 37.4092 121.368 37.1198C121.505 36.8303 121.574 36.3852 121.58 35.7904V34.5888Z" fill="white" fill-opacity="0.5"/>
<path d="M126.009 35.5988C126.009 36.4571 125.884 37.0978 125.634 37.521C125.383 37.9441 124.988 38.1577 124.451 38.1577C123.914 38.1577 123.54 37.9541 123.284 37.5469C123.028 37.1397 122.894 36.5269 122.882 35.7106V34.7126C122.882 33.8623 123.008 33.2295 123.26 32.8124C123.513 32.3952 123.906 32.1856 124.441 32.1856C124.976 32.1856 125.357 32.3832 125.61 32.7804C125.862 33.1776 125.995 33.7784 126.009 34.5808V35.5988ZM125.3 34.5888C125.3 33.9741 125.232 33.521 125.095 33.2295C124.958 32.9381 124.741 32.7924 124.441 32.7924C124.141 32.7924 123.936 32.9361 123.799 33.2216C123.662 33.507 123.592 33.9401 123.586 34.517V35.7146C123.586 36.3273 123.658 36.7864 123.799 37.0938C123.94 37.4012 124.157 37.5549 124.449 37.5549C124.741 37.5549 124.95 37.4092 125.087 37.1198C125.224 36.8303 125.294 36.3852 125.3 35.7904V34.5888Z" fill="white" fill-opacity="0.5"/>
<path d="M129.729 35.5988C129.729 36.4571 129.603 37.0978 129.353 37.521C129.102 37.9441 128.707 38.1577 128.17 38.1577C127.633 38.1577 127.26 37.9541 127.003 37.5469C126.747 37.1397 126.614 36.5269 126.602 35.7106V34.7126C126.602 33.8623 126.727 33.2295 126.979 32.8124C127.232 32.3952 127.625 32.1856 128.16 32.1856C128.695 32.1856 129.077 32.3832 129.329 32.7804C129.581 33.1776 129.715 33.7784 129.729 34.5808V35.5988ZM129.019 34.5888C129.019 33.9741 128.951 33.521 128.814 33.2295C128.677 32.9381 128.46 32.7924 128.16 32.7924C127.86 32.7924 127.655 32.9361 127.518 33.2216C127.381 33.507 127.311 33.9401 127.305 34.517V35.7146C127.305 36.3273 127.377 36.7864 127.518 37.0938C127.659 37.4012 127.876 37.5549 128.168 37.5549C128.46 37.5549 128.669 37.4092 128.806 37.1198C128.943 36.8303 129.013 36.3852 129.019 35.7904V34.5888Z" fill="white" fill-opacity="0.5"/>
<path d="M132.06 38.0798H131.347V33.1557L130.12 33.7026V33.0319L131.947 32.2375H132.058V38.0798H132.06Z" fill="white" fill-opacity="0.5"/>
<path d="M136.096 35.5988C136.096 36.4571 135.97 37.0978 135.72 37.521C135.469 37.9461 135.074 38.1577 134.537 38.1577C134 38.1577 133.627 37.9541 133.37 37.5469C133.114 37.1397 132.981 36.5269 132.969 35.7106V34.7126C132.969 33.8623 133.094 33.2295 133.346 32.8124C133.599 32.3952 133.993 32.1856 134.527 32.1856C135.062 32.1856 135.444 32.3832 135.696 32.7804C135.949 33.1776 136.082 33.7784 136.096 34.5808V35.5988ZM135.386 34.5888C135.386 33.9741 135.318 33.521 135.181 33.2295C135.044 32.9381 134.827 32.7924 134.527 32.7924C134.227 32.7924 134.022 32.9361 133.885 33.2216C133.748 33.507 133.678 33.9401 133.672 34.517V35.7146C133.672 36.3273 133.744 36.7864 133.885 37.0938C134.026 37.4012 134.243 37.5549 134.535 37.5549C134.827 37.5549 135.036 37.4092 135.173 37.1198C135.31 36.8303 135.38 36.3852 135.386 35.7904V34.5888Z" fill="white" fill-opacity="0.5"/>
<path d="M138.427 38.0798H137.714V33.1557L136.487 33.7026V33.0319L138.314 32.2375H138.425V38.0798H138.427Z" fill="white" fill-opacity="0.5"/>
<path d="M141.077 38.0798H140.364V33.1557L139.137 33.7026V33.0319L140.964 32.2375H141.075V38.0798H141.077Z" fill="white" fill-opacity="0.5"/>
<path d="M143.727 38.0798H143.013V33.1557L141.787 33.7026V33.0319L143.614 32.2375H143.725V38.0798H143.727Z" fill="white" fill-opacity="0.5"/>
<path d="M147.762 35.5988C147.762 36.4571 147.637 37.0978 147.387 37.521C147.136 37.9441 146.741 38.1577 146.204 38.1577C145.667 38.1577 145.293 37.9541 145.037 37.5469C144.781 37.1397 144.647 36.5269 144.635 35.7106V34.7126C144.635 33.8623 144.761 33.2295 145.013 32.8124C145.266 32.3952 145.659 32.1856 146.194 32.1856C146.729 32.1856 147.11 32.3832 147.363 32.7804C147.615 33.1776 147.748 33.7784 147.762 34.5808V35.5988ZM147.053 34.5888C147.053 33.9741 146.985 33.521 146.848 33.2295C146.711 32.9381 146.494 32.7924 146.194 32.7924C145.894 32.7924 145.689 32.9361 145.552 33.2216C145.415 33.507 145.345 33.9401 145.339 34.517V35.7146C145.339 36.3273 145.411 36.7864 145.552 37.0938C145.693 37.4012 145.91 37.5549 146.202 37.5549C146.494 37.5549 146.703 37.4092 146.84 37.1198C146.977 36.8303 147.047 36.3852 147.053 35.7904V34.5888Z" fill="white" fill-opacity="0.5"/>
<path d="M150.094 38.0798H149.38V33.1557L148.154 33.7026V33.0319L149.981 32.2375H150.092V38.0798H150.094Z" fill="white" fill-opacity="0.5"/>
<path d="M154.129 35.5988C154.129 36.4571 154.004 37.0978 153.754 37.521C153.503 37.9441 153.108 38.1577 152.571 38.1577C152.034 38.1577 151.66 37.9541 151.404 37.5469C151.148 37.1397 151.014 36.5269 151.002 35.7106V34.7126C151.002 33.8623 151.128 33.2295 151.38 32.8124C151.633 32.3952 152.026 32.1856 152.561 32.1856C153.096 32.1856 153.477 32.3832 153.73 32.7804C153.982 33.1776 154.115 33.7784 154.129 34.5808V35.5988ZM153.42 34.5888C153.42 33.9741 153.352 33.521 153.215 33.2295C153.078 32.9381 152.861 32.7924 152.561 32.7924C152.261 32.7924 152.056 32.9361 151.919 33.2216C151.782 33.507 151.712 33.9401 151.706 34.517V35.7146C151.706 36.3273 151.778 36.7864 151.919 37.0938C152.06 37.4012 152.277 37.5549 152.569 37.5549C152.861 37.5549 153.07 37.4092 153.207 37.1198C153.344 36.8303 153.414 36.3852 153.42 35.7904V34.5888Z" fill="white" fill-opacity="0.5"/>
<path d="M157.849 35.5988C157.849 36.4571 157.723 37.0978 157.473 37.521C157.222 37.9441 156.827 38.1577 156.29 38.1577C155.753 38.1577 155.38 37.9541 155.123 37.5469C154.867 37.1397 154.734 36.5269 154.722 35.7106V34.7126C154.722 33.8623 154.847 33.2295 155.099 32.8124C155.352 32.3952 155.745 32.1856 156.28 32.1856C156.815 32.1856 157.197 32.3832 157.449 32.7804C157.702 33.1776 157.835 33.7784 157.849 34.5808V35.5988ZM157.139 34.5888C157.139 33.9741 157.071 33.521 156.934 33.2295C156.797 32.9381 156.58 32.7924 156.28 32.7924C155.98 32.7924 155.775 32.9361 155.638 33.2216C155.501 33.507 155.431 33.9401 155.425 34.517V35.7146C155.425 36.3273 155.497 36.7864 155.638 37.0938C155.779 37.4012 155.996 37.5549 156.288 37.5549C156.58 37.5549 156.789 37.4092 156.926 37.1198C157.063 36.8303 157.133 36.3852 157.139 35.7904V34.5888Z" fill="white" fill-opacity="0.5"/>
<path d="M161.568 35.5988C161.568 36.4571 161.443 37.0978 161.192 37.521C160.942 37.9441 160.546 38.1577 160.009 38.1577C159.473 38.1577 159.099 37.9541 158.843 37.5469C158.586 37.1397 158.453 36.5269 158.441 35.7106V34.7126C158.441 33.8623 158.566 33.2295 158.819 32.8124C159.071 32.3952 159.465 32.1856 159.999 32.1856C160.534 32.1856 160.916 32.3832 161.168 32.7804C161.421 33.1776 161.554 33.7784 161.568 34.5808V35.5988ZM160.858 34.5888C160.858 33.9741 160.791 33.521 160.653 33.2295C160.516 32.9381 160.3 32.7924 159.999 32.7924C159.699 32.7924 159.495 32.9361 159.357 33.2216C159.22 33.507 159.151 33.9401 159.145 34.517V35.7146C159.145 36.3273 159.216 36.7864 159.357 37.0938C159.499 37.4012 159.715 37.5549 160.007 37.5549C160.3 37.5549 160.508 37.4092 160.646 37.1198C160.783 36.8303 160.852 36.3852 160.858 35.7904V34.5888Z" fill="white" fill-opacity="0.5"/>
<path d="M163.9 38.0798H163.186V33.1557L161.959 33.7026V33.0319L163.786 32.2375H163.898V38.0798H163.9Z" fill="white" fill-opacity="0.5"/>
<path d="M166.549 38.0798H165.836V33.1557L164.609 33.7026V33.0319L166.436 32.2375H166.547V38.0798H166.549Z" fill="white" fill-opacity="0.5"/>
<path d="M170.585 35.5988C170.585 36.4571 170.459 37.0978 170.209 37.521C169.959 37.9441 169.563 38.1577 169.026 38.1577C168.49 38.1577 168.116 37.9541 167.859 37.5469C167.603 37.1397 167.47 36.5269 167.458 35.7106V34.7126C167.458 33.8623 167.583 33.2295 167.836 32.8124C168.088 32.3952 168.482 32.1856 169.016 32.1856C169.551 32.1856 169.933 32.3832 170.185 32.7804C170.438 33.1776 170.571 33.7784 170.585 34.5808V35.5988ZM169.875 34.5888C169.875 33.9741 169.807 33.521 169.67 33.2295C169.533 32.9381 169.316 32.7924 169.016 32.7924C168.716 32.7924 168.511 32.9361 168.374 33.2216C168.237 33.507 168.168 33.9401 168.162 34.517V35.7146C168.162 36.3273 168.233 36.7864 168.374 37.0938C168.515 37.4012 168.732 37.5549 169.024 37.5549C169.316 37.5549 169.525 37.4092 169.662 37.1198C169.8 36.8303 169.869 36.3852 169.875 35.7904V34.5888Z" fill="white" fill-opacity="0.5"/>
<path d="M174.304 35.5988C174.304 36.4571 174.179 37.0978 173.928 37.521C173.678 37.9461 173.282 38.1577 172.746 38.1577C172.209 38.1577 171.835 37.9541 171.579 37.5469C171.322 37.1397 171.189 36.5269 171.177 35.7106V34.7126C171.177 33.8623 171.302 33.2295 171.555 32.8124C171.807 32.3952 172.201 32.1856 172.736 32.1856C173.27 32.1856 173.652 32.3832 173.904 32.7804C174.157 33.1776 174.29 33.7784 174.304 34.5808V35.5988ZM173.594 34.5888C173.594 33.9741 173.527 33.521 173.39 33.2295C173.252 32.9381 173.036 32.7924 172.736 32.7924C172.435 32.7924 172.231 32.9361 172.094 33.2216C171.956 33.507 171.887 33.9401 171.881 34.517V35.7146C171.881 36.3273 171.952 36.7864 172.094 37.0938C172.235 37.4012 172.451 37.5549 172.744 37.5549C173.036 37.5549 173.244 37.4092 173.382 37.1198C173.519 36.8303 173.588 36.3852 173.594 35.7904V34.5888Z" fill="white" fill-opacity="0.5"/>
<path d="M176.636 38.0798H175.922V33.1557L174.696 33.7026V33.0319L176.522 32.2375H176.634V38.0798H176.636Z" fill="white" fill-opacity="0.5"/>
<path d="M180.671 35.5988C180.671 36.4571 180.546 37.0978 180.295 37.521C180.045 37.9441 179.649 38.1577 179.113 38.1577C178.576 38.1577 178.202 37.9541 177.946 37.5469C177.689 37.1397 177.556 36.5269 177.544 35.7106V34.7126C177.544 33.8623 177.669 33.2295 177.922 32.8124C178.174 32.3952 178.568 32.1856 179.103 32.1856C179.637 32.1856 180.019 32.3832 180.271 32.7804C180.524 33.1776 180.657 33.7784 180.671 34.5808V35.5988ZM179.963 34.5888C179.963 33.9741 179.896 33.521 179.759 33.2295C179.621 32.9381 179.405 32.7924 179.105 32.7924C178.804 32.7924 178.6 32.9361 178.463 33.2216C178.325 33.507 178.256 33.9401 178.25 34.517V35.7146C178.25 36.3273 178.321 36.7864 178.463 37.0938C178.604 37.4012 178.82 37.5549 179.113 37.5549C179.405 37.5549 179.614 37.4092 179.751 37.1198C179.888 36.8303 179.957 36.3852 179.963 35.7904V34.5888Z" fill="white" fill-opacity="0.5"/>
<path d="M184.39 35.5988C184.39 36.4571 184.265 37.0978 184.015 37.521C183.764 37.9441 183.369 38.1577 182.832 38.1577C182.295 38.1577 181.921 37.9541 181.665 37.5469C181.409 37.1397 181.275 36.5269 181.263 35.7106V34.7126C181.263 33.8623 181.389 33.2295 181.641 32.8124C181.894 32.3952 182.287 32.1856 182.822 32.1856C183.357 32.1856 183.738 32.3832 183.991 32.7804C184.243 33.1776 184.376 33.7784 184.39 34.5808V35.5988ZM183.681 34.5888C183.681 33.9741 183.613 33.521 183.476 33.2295C183.339 32.9381 183.122 32.7924 182.822 32.7924C182.522 32.7924 182.317 32.9361 182.18 33.2216C182.043 33.507 181.973 33.9401 181.967 34.517V35.7146C181.967 36.3273 182.039 36.7864 182.18 37.0938C182.321 37.4012 182.538 37.5549 182.83 37.5549C183.122 37.5549 183.331 37.4092 183.468 37.1198C183.605 36.8303 183.675 36.3852 183.681 35.7904V34.5888Z" fill="white" fill-opacity="0.5"/>
</g>
</svg>
