<svg width="124" height="48" viewBox="0 0 124 48" fill="none" xmlns="http://www.w3.org/2000/svg">
<g opacity="0.84">
<path d="M8.69416 7.09147V20.1348H21.5862V7.09147H30.4296V40.7403H21.5862V26.9547H8.69416V40.7403H0V7.09147H8.69416Z" fill="white" fill-opacity="0.5"/>
<path d="M32.8278 7.09147C37.8333 7.30008 43.067 6.81333 48.0479 7.08452C51.5803 7.27748 55.0776 8.27012 57.2354 11.1924C59.4616 14.2086 59.6178 18.3547 58.8945 21.8976C57.4601 21.9741 56.3119 21.6542 55.0232 22.4417C54.1471 22.9772 50.6322 25.6734 50.0054 26.374C49.2962 27.1685 48.9801 28.6044 48.7168 29.6214H42.2716V40.7386H32.8278V7.09147ZM42.2716 22.5078H46.8435C47.077 22.5078 48.3621 21.915 48.6167 21.7429C50.4286 20.5155 50.5567 16.9118 49.096 15.3889C48.6465 14.9196 47.163 14.2086 46.5432 14.2086H42.2716V22.5095V22.5078Z" fill="white" fill-opacity="0.5"/>
<path d="M65.6539 26.3618L62.8009 35.6276C62.5849 38.3743 66.6581 37.4338 67.3288 35.5042L70.2994 26.3618H73.7476L69.4181 40.5056C69.3303 40.6325 66.6687 40.6516 66.3193 40.603C65.919 40.5473 66.1613 40.0745 65.8698 40.0067C65.7487 39.9789 64.4916 40.5247 64.0632 40.5769C61.528 40.8863 58.9191 39.812 58.9103 36.961C58.9068 35.7337 61.2857 28.2741 61.8967 26.8712C61.9546 26.7373 62.1741 26.3618 62.2812 26.3618H65.6539Z" fill="white" fill-opacity="0.5"/>
<path d="M109.444 36.9071C109.602 36.6568 112.98 36.6463 113.366 36.8775C113.51 36.9645 113.549 37.2252 113.689 37.3313C114.731 38.1118 117.239 37.9467 117.901 36.7489C118.17 36.2639 118.277 35.8936 117.722 35.572C116.797 35.0366 114.555 35.0261 113.365 34.5446C109.765 33.0895 112.173 28.7713 114.472 27.278C116.546 25.9325 121.379 25.2284 123.126 27.2623C123.493 27.69 124.375 29.4701 123.823 29.8543C123.672 29.9586 120.5 29.983 120.145 29.9152C119.769 29.8439 119.425 29.3154 118.909 29.2111C117.887 29.0042 114.878 29.3293 115.529 30.9113C115.844 31.6779 118.644 31.8657 119.536 32.149C125.086 33.917 120.377 40.2901 116.207 40.8481C113.177 41.2531 109.142 40.8046 109.448 36.9054L109.444 36.9071Z" fill="white" fill-opacity="0.5"/>
<path d="M79.2938 26.3618C79.3342 26.4053 79.2622 26.8156 79.2938 26.9564C80.0944 26.8677 80.8107 26.4418 81.6183 26.3636C85.0349 26.035 86.9942 28.069 86.2691 31.4067C85.616 34.4072 84.0341 37.5573 83.3407 40.5925H79.7433L82.5927 31.3233C82.5313 28.5366 78.8724 29.5327 78.0683 31.4485L75.2575 40.231L75.0222 40.5908H71.6496L76.2214 26.3601C76.6374 26.4435 79.1902 26.2488 79.2938 26.3601V26.3618Z" fill="white" fill-opacity="0.5"/>
<path d="M60.1077 26.3618C59.8742 26.9164 59.4545 29.1085 59.1736 29.4388C58.7505 29.9326 56.6016 29.2702 56.2346 29.87C55.8185 31.5649 54.9495 33.3677 54.5702 35.0435C54.4386 35.6276 54.2015 36.3734 54.6247 36.9001C55.0934 37.4825 56.3944 37.3956 56.3593 38.1309C56.3505 38.3204 55.5727 40.6621 55.4744 40.7925C55.0372 41.3714 52.8426 40.5891 52.2685 40.2675C48.4815 38.1518 52.0947 32.7436 52.6161 29.6996C52.5986 29.4423 50.6761 29.8908 50.5251 29.3832C50.4637 29.1763 50.9869 27.763 51.18 27.5388C51.4872 27.1789 55.9203 23.8116 56.2803 23.6882C56.6454 23.5612 57.8709 23.3839 58.0992 23.6882C58.3748 24.0567 57.0914 26.3636 57.7866 26.3636H60.1094L60.1077 26.3618Z" fill="white" fill-opacity="0.5"/>
<path d="M106.876 26.3618C106.921 26.407 106.842 27.0694 106.876 27.2502C107.048 27.4275 108.243 26.68 108.528 26.5878C109.118 26.3983 111.109 26.0976 111.456 26.6574C111.695 27.0416 110.457 29.5449 110.461 30.202C109.774 30.3689 109.369 29.7605 108.712 29.6561C107.086 29.3989 106.082 30.5862 105.522 31.9161C104.369 34.6541 103.891 37.898 102.602 40.5908H99.0804L103.801 26.3601C104.23 26.4401 106.765 26.2523 106.874 26.3601L106.876 26.3618Z" fill="white" fill-opacity="0.5"/>
<path d="M99.1769 27.1546C100.413 28.3593 100.418 29.976 100.057 31.5493C99.9758 31.9022 99.2876 34.0926 99.1594 34.2195C98.7556 34.6263 92.1507 34.1917 91.085 34.3881C89.763 35.9962 90.4863 38.0701 92.8266 37.592C93.4043 37.4738 93.9731 36.8306 94.5174 36.7437C94.8843 36.6846 97.2264 36.6724 97.4827 36.7593C97.6793 36.8271 97.8935 37.1905 97.8567 37.3799C97.7654 37.8371 95.6463 39.5704 95.1389 39.8763C92.6616 41.3679 87.1733 41.6704 86.6536 37.9814C86.3516 35.838 88.3812 30.2524 89.9385 28.6566C92.0243 26.52 96.7137 24.7521 99.1769 27.1528V27.1546ZM96.3819 31.4015C97.2404 28.2411 92.1419 29.0477 92.0348 31.4015H96.3819Z" fill="white" fill-opacity="0.5"/>
</g>
</svg>
