<svg width="228" height="48" viewBox="0 0 228 48" fill="none" xmlns="http://www.w3.org/2000/svg">
<g opacity="0.84">
<path d="M63.834 36.9067L71.9731 14.97L80.3721 14.9045L82.8696 32.7963L98.6371 14.9068H106.905C105.693 17.5808 99.6963 35.9943 98.4487 36.7218C97.7545 37.1266 92.7595 37.1149 92.6927 36.3499L98.4415 21.2443L84.3295 36.8271C83.1582 36.8177 78.3397 37.2693 77.8459 36.5557L75.5679 21.2419C74.5612 22.8655 70.2746 36.9043 69.4111 36.9043H63.834V36.9067Z" fill="white" fill-opacity="0.5"/>
<path d="M157.282 14.9068C157.504 15.101 156.352 17.6814 155.553 17.5176L138.886 17.5784C138.087 19.8664 136.668 22.1754 136.515 24.599H150.935C151.853 24.599 152.736 25.9863 152.657 26.9758C152.588 27.8157 150.384 33.5683 149.878 34.3848C149.365 35.2106 148.743 35.758 147.824 36.1229C147.342 36.3148 145.126 36.902 144.783 36.902H125.747L126.368 34.2701L143.96 33.9543L146.512 27.2098H133.245C131.914 27.2098 129.774 26.0962 130.041 24.5101C130.122 24.0212 132.851 16.9725 133.097 16.6263C133.45 16.1303 135.897 14.9045 136.322 14.9045H157.28L157.282 14.9068Z" fill="white" fill-opacity="0.5"/>
<path d="M123.825 14.9068L124.156 36.2937C123.705 37.2716 118.472 37.04 118.033 36.7429C117.25 36.2142 117.864 32.415 117.673 31.3131H108.637C107.935 31.3131 104.942 36.3803 104.217 36.7218C103.673 36.9768 100.457 37.3231 100.758 36.3545L117.479 14.9068H123.825ZM117.673 28.7047L117.284 20.1284L110.75 28.7047H117.673Z" fill="white" fill-opacity="0.5"/>
<path d="M181.893 14.9068C182.126 15.1174 181.265 17.4357 180.865 17.5316C179.264 17.9083 173.212 17.0591 172.341 17.5808L164.973 36.9067H159.205L166.127 17.5176H158.244C158.139 17.5176 157.85 17.0825 157.664 16.9515C157.919 16.631 158.322 14.9092 158.435 14.9092H181.893V14.9068Z" fill="white" fill-opacity="0.5"/>
<path d="M206.505 27.2121C205.897 28.8591 203.96 35.8118 202.882 36.5628C202.166 37.0611 198.829 37.0517 197.841 36.909C197.281 36.8271 197.219 37.1266 197.264 36.3405L205.336 15.0776C205.627 14.8787 205.964 14.9255 206.293 14.8858C210.157 14.4202 221.643 14.4577 225.55 14.8975C227.022 15.0636 228.191 15.6344 227.974 17.2275C227.888 17.8662 225.863 23.2819 225.515 23.827C224.868 24.8376 223.439 25.4669 222.275 25.7219C222.81 26.6624 224.193 26.0073 224 27.6215C223.912 28.3608 220.896 36.2001 220.553 36.5417C219.907 37.185 214.659 37.1312 214.599 36.3499C214.501 35.0913 218.048 29.1351 218.044 27.2098H206.508L206.505 27.2121ZM221.886 17.5176H210.351C209.733 19.8944 208.144 22.1403 208.044 24.6013H218.618C219.658 24.6013 221.183 18.5235 221.886 17.5176Z" fill="white" fill-opacity="0.5"/>
<path d="M203.428 14.9068C203.271 15.9829 202.932 17.2743 201.689 17.5082C199.204 17.9785 190.187 16.893 188.808 17.6977C188.116 19.4032 186.563 22.1262 186.275 23.8317C186.205 24.2364 186.537 24.6037 186.699 24.6037H199.583C199.571 25.3289 199.306 26.9197 198.569 27.163L185.032 27.2753C184.19 29.5422 182.937 31.9284 182.661 34.2959H196.119C196.229 34.8386 195.015 36.9067 194.774 36.9067H175.932C175.877 36.9067 175.194 36.3803 175.507 36.1346L183.431 14.9092H203.428V14.9068Z" fill="white" fill-opacity="0.5"/>
<path d="M18.1964 32.3518C18.2179 32.3705 18.2561 32.7214 18.2441 32.808C18.1344 33.5449 17.4236 35.5849 17.1349 36.3616C17.0157 36.6844 16.8845 36.8365 16.5243 36.9043C12.0612 36.7289 7.39292 37.1523 2.95368 36.9137C1.06443 36.8107 -0.106801 35.6855 0.00769834 33.7906C1.58922 29.1702 2.69605 24.1569 4.46841 19.6207C5.37964 17.2883 7.38815 15.1735 10.024 14.8062C22.9124 14.605 35.8246 14.7828 48.7201 14.7173C49.2187 14.7454 49.3022 14.7384 49.1853 15.2577L44.5743 29.8908C44.4908 31.0628 44.789 32.2185 46.1558 32.3518C47.4463 32.4781 48.942 32.2676 50.2563 32.3425C54.3187 31.4441 54.0849 26.5898 55.4637 23.5392C57.4435 22.4163 59.3566 21.1133 61.3723 20.0582C61.5011 19.9904 61.6275 19.8827 61.7826 19.8898C61.8232 19.9319 61.68 20.5261 61.6514 20.6337C60.8237 23.6422 59.8003 27.301 58.6816 30.1855C56.1888 36.6119 50.1633 37.302 43.9016 36.9113C40.9007 36.7242 38.7682 34.9813 38.7443 31.926C39.6556 27.6473 41.2896 23.5252 42.5681 19.3353C43.7418 18.0978 45.3066 17.0825 46.5065 15.8987C46.5876 15.8169 46.6901 15.7677 46.6591 15.632L39.4504 19.2464C36.8408 19.464 34.0021 19.0686 31.4188 19.2815C29.6273 19.4289 28.3106 20.7858 27.6188 22.3204C26.927 23.8551 26.283 26.1266 25.7725 27.8063C25.4123 28.9948 24.439 31.154 25.8178 31.9845C25.9371 32.057 26.6837 32.3495 26.7624 32.3495H36.5354C36.5617 32.3495 36.7382 32.5203 36.7144 32.5998C36.3112 33.7789 36.0274 35.1123 35.5694 36.2656C35.4501 36.5628 35.3475 36.8482 34.9802 36.9043C31.9149 36.7944 28.7256 37.0657 25.6747 36.9113C21.8604 36.7195 19.537 34.9369 19.5871 31.016C20.6629 27.0647 21.672 22.8327 23.702 19.2418L27.7333 15.632L20.465 19.2605L10.024 19.2909C9.87852 19.34 9.79741 19.6371 9.73778 19.7705C9.41098 20.5261 8.99114 21.904 8.786 22.7134C8.75976 22.8211 8.59994 23.3053 8.7693 23.3053H20.0165C20.1882 23.3053 20.3338 23.5977 20.2574 23.7615C19.7207 24.9195 19.549 26.4565 19.0289 27.5818C18.9741 27.7034 18.9407 27.8274 18.8095 27.8976L7.31182 28.0309C6.99694 28.1198 6.76317 29.0486 6.65821 29.3667C6.36004 30.2721 6.12627 31.2032 5.79708 32.1015C5.74937 32.181 5.84241 32.3471 5.89965 32.3471H18.194L18.1964 32.3518Z" fill="white" fill-opacity="0.5"/>
<path d="M69.1535 11C69.2203 11.0655 69.1034 11.2363 69.0438 11.3088C68.8816 11.5006 68.2089 11.9966 67.9513 12.2142C64.4399 15.1642 60.8165 17.9948 57.2527 20.8817C57.1096 20.9986 56.0982 21.9929 55.9717 21.8666C56.5609 20.1775 56.9355 18.4089 57.4984 16.7152C57.9063 15.4893 57.9302 14.9209 59.2302 14.3851L69.1559 11.0023L69.1535 11Z" fill="white" fill-opacity="0.5"/>
</g>
</svg>
