<svg width="183" height="48" viewBox="0 0 183 48" fill="none" xmlns="http://www.w3.org/2000/svg">
<g opacity="0.84">
<path d="M170.965 10L170.652 11.238L169.521 10.5128L170.965 10Z" fill="white" fill-opacity="0.5"/>
<path d="M107.501 17.6265C106.965 17.0917 106.757 17.2199 106.055 17.4182C105.998 17.1478 106.444 17.0877 106.626 17.0596C107.894 16.8633 108.319 17.923 108.119 19.0689C107.252 19.089 108.323 18.4479 107.499 17.6265C107.242 17.9591 107.549 19.0168 107.499 19.0689C107.118 19.4536 107.08 18.6542 106.983 18.6522C106.608 18.6442 106.564 19.0048 106.261 19.0709L106.257 17.6265H107.499H107.501Z" fill="white" fill-opacity="0.5"/>
<path d="M84.5548 21.3366V17.0075H92.8233V27.8313C92.8233 29.456 96.1311 29.2036 96.1311 28.0377V17.0095H103.986V39.789C103.986 40.1917 103.242 41.8444 102.987 42.2972C100.071 47.4998 92.8775 48.854 87.4494 47.5198V40.7166C91.4592 41.7503 96.5102 41.3817 95.7179 35.9768C91.8845 37.6315 87.4052 37.5814 85.3471 33.4346C85.1987 33.1341 84.5568 31.5274 84.5568 31.3371V22.164L77.5299 30.3074C78.9221 31.1087 80.242 29.6744 81.4536 29.3799L83.7042 36.2632C76.5691 40.8628 65.5123 38.0241 64.738 28.6307C63.8353 17.6646 78.0194 12.8406 84.5568 21.3386L84.5548 21.3366ZM77.1127 24.8444C75.2512 23.9509 72.8661 25.4755 72.7839 27.4367C72.7598 28.0016 73.175 29.4801 73.9152 28.9712C74.1599 28.8029 76.7536 25.8621 76.9121 25.5676C77.0445 25.3212 77.199 25.175 77.1127 24.8424V24.8444Z" fill="white" fill-opacity="0.5"/>
<path d="M64.0881 10H56.2328V38.4489H64.0881V10Z" fill="white" fill-opacity="0.5"/>
<path d="M54.3733 10H46.518V38.2425H54.3733V10Z" fill="white" fill-opacity="0.5"/>
<path d="M46.0406 27.9816C46.0406 33.9695 41.1721 38.8235 35.1683 38.8235C29.1645 38.8235 24.2961 33.9695 24.2961 27.9816C24.2961 21.9938 29.1645 17.1398 35.1683 17.1398C41.1721 17.1398 46.0406 21.9938 46.0406 27.9816ZM34.2636 25.5076C31.351 26.1025 31.5917 31.3051 35.2546 31.245C39.5674 31.1729 39.1261 24.5139 34.2636 25.5076Z" fill="white" fill-opacity="0.5"/>
<path d="M9.3056 10V19.2773H13.6465V27.7292H9.4079C9.38584 27.7292 9.09698 28.0157 9.09698 28.0377V38.4489H0V10H9.3056Z" fill="white" fill-opacity="0.5"/>
<path d="M23.5699 10H14.8881V38.2425H23.5699V10Z" fill="white" fill-opacity="0.5"/>
<path d="M180.06 17.0095C180.14 17.0817 180.606 18.9387 180.584 19.099C180.529 19.4896 178.644 21.0181 178.824 21.7494C179.414 21.7013 180.291 19.6018 180.475 20.6135C179.924 21.3206 179.117 22.1801 178.658 22.9253C177.123 25.4174 175.922 28.0257 174.243 30.4777C173.97 30.8764 173.645 31.3051 173.278 31.6176C173.198 31.6877 173.166 32.2026 172.829 31.7498L177.171 24.9486L176.758 24.8465C173.338 29.1095 170.947 34.1017 167.968 38.6492C167.455 37.8459 167.764 37.0065 166.536 36.7841L165.593 38.2405C165.625 37.7417 165.517 37.1928 165.601 36.706C166.406 32.0764 169.824 24.3136 173.129 20.918C173.4 20.6395 175.404 18.7624 175.555 18.6963C175.872 18.5561 176.241 18.9087 176.606 18.8305C177.093 18.7244 177.613 17.8189 177.687 17.8249C178.042 17.8549 178.283 18.3337 178.7 18.2576C178.899 18.0653 179.805 16.7872 180.056 17.0095H180.06Z" fill="white" fill-opacity="0.5"/>
<path d="M146.159 19.069C146.188 19.099 146.19 19.8623 146.159 19.8923C145.977 20.0826 141.706 19.8142 140.888 19.8943C138.126 20.1648 134.364 20.6636 131.608 21.1544C130.228 21.4008 129.364 21.7634 128.164 21.8576C126.491 21.9878 123.089 22.8873 121.974 24.1233C121.815 24.2976 120.638 26.0024 120.728 26.0745C121.912 25.8221 123.37 25.3694 124.553 25.2532C129.097 24.8124 134.894 25.135 139.411 25.6719C139.56 25.6899 139.52 26.0344 139.678 26.0725C139.945 26.1366 140.723 26.0144 140.781 26.0725C140.852 26.1466 140.687 26.7857 140.787 26.8899C140.888 26.994 141.993 26.8137 142.017 27.3085C141.066 27.9075 140.617 26.8979 139.875 26.9059C139.538 26.9099 138.284 27.2625 137.849 27.3807C133.58 28.5326 129.404 28.8351 124.985 29.396C123.627 29.5683 121.785 30.4878 120.608 30.614C120.104 30.6681 119.791 30.1853 119.228 30.2354C118.937 30.2614 117.029 30.8985 116.855 31.0788C116.536 31.4073 116.036 32.7976 115.561 33.1922C115.494 33.4727 115.579 33.5829 115.864 33.4947C116.393 33.3305 117.2 32.8357 117.777 32.7215C119.278 32.427 120.882 32.1425 122.323 31.8941C124.551 31.5095 126.734 31.239 128.995 31.4394L128.17 31.848C129.923 31.7819 131.628 32.1706 133.223 31.2591L138.92 31.852L138.711 32.2607C139.458 32.3428 140.308 32.5312 141.028 32.7375C141.241 32.7996 141.654 32.7856 141.606 33.0841L139.237 32.6674L137.474 32.8777C138.079 32.7054 138.78 33.4767 138.858 33.4927C139.419 33.6149 140.509 33.8053 141.104 33.8994C142.42 34.1037 141.833 33.7592 142.029 33.2463C143.417 29.6284 146.081 25.4435 148.727 22.4505C149.487 21.5911 152.595 18.8105 152.739 18.0873C152.801 17.7728 152.601 17.4323 152.681 17.2019C152.94 16.4627 154.129 16.647 154.787 16.4366C155.589 16.1802 156.711 15.0023 157.493 14.5515C158.975 13.7001 163.108 11.813 164.686 11.6507C165.172 11.6007 165.593 11.833 166.018 11.7649C166.696 11.6568 167.25 10.8154 168.072 11.0257C167.85 13.1833 169.539 12.1556 170.867 12.0614C173.679 11.8591 176.523 11.5466 179.33 11.4324C180.676 11.3763 181.462 11.9332 182.75 11.8551C182.25 12.2577 181.994 12.7165 181.717 13.2934L182.75 13.7061C181.603 13.6821 180.313 13.9105 179.187 14.1749C176.082 14.9041 173.691 15.3729 170.445 15.7655C169.059 15.9338 165.629 15.9438 164.49 16.4306C164.213 16.5488 164.233 16.8693 163.972 16.9915C163.146 17.3802 162.55 17.3481 161.712 17.8189C160.518 18.49 160.51 18.0573 159.852 18.2937C159.667 18.3598 157.569 20.7277 157.154 21.1123C156.211 21.9878 154.627 22.5607 154.221 24.0131C155.836 24.1974 157.353 23.5544 158.881 23.1998C161.306 22.6389 164.313 21.8375 166.933 21.539C167.559 21.4669 168.261 21.5891 168.897 21.541C169.043 22.4505 167.312 21.8836 167.246 21.9537V22.7771C167.92 22.6709 168.979 22.9313 169.581 22.7831C169.81 22.727 169.834 22.2642 170.036 22.1601C170.441 21.9517 170.71 22.2742 170.558 22.6769C170.536 22.737 170.231 22.719 170.147 22.9353C170.074 23.1196 170.203 23.5283 170.135 23.5964C170.052 23.6806 168.291 23.8769 167.87 24.1233C167.609 24.2755 167.613 24.7503 167.092 24.9967C166.233 25.4014 160.819 26.2428 159.471 26.4692C157.17 26.8538 155.208 26.5914 152.944 27.7493C151.19 28.6447 150.673 29.991 149.856 31.6798C149.782 31.834 149.513 31.85 149.475 31.9983C148.942 34.0777 151.411 32.4971 151.742 33.9094C151.289 34.2139 148.787 34.1939 148.657 34.3441C148.569 34.4463 148.707 34.835 148.631 34.9872C148.32 35.6002 147.917 36.5057 147.83 37.3291C147.76 37.9982 147.7 39.7631 147.822 40.3581C147.937 40.913 150.97 42.1951 148.791 42.1129L147.403 41.3317C147.225 41.554 147.786 42.782 146.99 42.5697C147.279 42.2311 146.472 41.0452 146.165 41.3317C145.16 44.3426 147.69 43.2548 147.814 43.3931C148.432 44.0842 146.28 44.5209 146.198 44.6591C145.756 45.3944 146.898 45.5286 146.577 45.8631C146.438 46.0074 143.004 47.1092 142.751 47.1092C142.537 47.1092 140.964 46.7306 140.735 46.6404C139.137 46.0214 139.307 40.8809 139.596 39.4205C139.742 38.6753 141.044 35.7685 140.978 35.472C140.852 34.9051 140.154 35.3318 139.859 35.3117C138.952 35.2476 138.025 35.0213 137.068 35.1495L137.275 35.9708C133.624 35.6423 129.939 36.2633 126.319 36.7982C126.106 37.6376 127.257 36.8643 127.352 37.4132C125.831 37.7257 123.944 37.4172 122.507 37.6356C121.707 37.7558 120.836 38.481 120 38.6412C119.39 38.7594 120.082 38.2165 119.803 38.2366C118.004 38.5611 116.313 39.09 114.584 39.6289C114.251 39.733 113.822 39.6208 113.499 39.7811C113.041 40.0095 113.125 40.6766 113.085 40.7126C113.045 40.7487 112.283 40.5384 112.259 40.5023C112.135 40.336 112.841 39.5647 112.157 39.6769C111.085 39.8512 109.695 41.4278 108.333 41.3277C108.273 40.7567 109.18 40.0375 108.231 39.8873C107.972 39.9414 106.205 42.728 106.113 43.1366C106.01 43.5894 106.115 45.2722 105.838 45.4424C104.999 45.9573 105.296 44.6872 105.234 44.6251C104.987 44.3787 104.231 45.2782 104.424 43.7116C104.53 42.8462 104.995 43.0144 105.409 42.4335C105.621 42.133 106.536 40.2118 106.602 39.8913C106.769 39.088 105.896 38.4169 106.379 37.2129C106.843 36.057 107.579 36.3615 108.277 36.0129C109.82 35.2456 111.671 33.1081 112.508 31.5736C113.079 30.5238 112.833 30.604 112.949 29.7085C113.089 28.6327 114.024 29.1656 114.656 28.767C114.786 28.6848 116.542 26.5253 116.612 26.389C116.828 25.9683 116.772 25.6097 116.927 25.2612C117.063 24.9527 117.531 24.57 117.555 24.3196C117.601 23.8368 116.947 23.31 117.097 22.7671C117.472 21.4108 119.262 21.5491 119.974 20.93C120.247 20.6916 120.295 19.9624 120.75 19.5898C121.187 19.2312 122.236 19.1451 122.355 19.0109C122.447 18.9047 122.339 18.5501 122.413 18.478C122.517 18.3778 123.294 18.482 123.697 18.2496C123.823 18.1755 124.826 16.8974 125.179 16.5789C125.598 16.2002 126.654 15.6053 126.86 15.3709C127.41 14.7458 126.716 14.3372 128.284 14.5255L128.385 14.9362C128.114 14.7238 127.065 16.7131 127.149 16.7932C127.731 16.5889 128.565 16.7031 129.073 16.5829C130.058 16.3485 131.55 15.8517 132.826 15.7555C133.929 15.6734 135.129 15.8276 136.244 15.7655C136.258 16.072 135.514 16.1241 135.291 16.1522C134.451 16.2603 133.566 16.1822 132.732 16.3845L133.033 16.7251C133.913 16.4507 134.83 16.659 135.724 16.5849C139.919 16.2403 143.837 16.3946 148.083 16.637L149.473 17.2059C148.286 17.4062 147.114 16.7672 145.961 17.1037L148.234 17.8249C146.005 17.6326 143.756 17.2239 141.506 17.4042C141.143 17.4323 140.707 17.3642 140.587 17.8269H143.997C144.153 17.8269 144.854 18.1695 145.261 18.2156C146.31 18.3378 147.796 17.859 148.442 18.8546L146.091 18.6783L143.275 19.063C143.712 19.1391 146.069 18.9588 146.169 19.063L146.159 19.069ZM132.308 16.5989L130.78 16.6189L127.348 17.4202L129.707 17.4062L132.306 16.6009L132.308 16.5989Z" fill="white" fill-opacity="0.5"/>
</g>
</svg>
