<svg width="146" height="48" viewBox="0 0 146 48" fill="none" xmlns="http://www.w3.org/2000/svg">
<g opacity="0.84">
<path d="M30.1805 38.5287H24.8367L27.2236 14.8266L19.4909 38.5287H14.4087L24.1706 10.1634H32.1995L30.2112 30.0348L42.3864 10.1634H50.5176L40.7373 38.5287H35.5958L44.3503 14.9981L30.1805 38.5287ZM48.2861 29.994C48.8276 26.1899 50.301 23.1532 52.6939 20.894C55.0889 18.6287 57.9805 17.4919 61.3543 17.4919C64.2827 17.4919 66.4468 18.3307 67.8527 20.0021C69.2607 21.6736 69.7634 23.9185 69.3608 26.745C68.8867 30.0736 67.4501 32.947 65.0449 35.3695C62.6438 37.8001 59.7175 39.0083 56.266 39.0083C54.3962 39.0083 52.8002 38.6246 51.4637 37.845C50.1314 37.0736 49.2118 35.9756 48.6989 34.5552C48.1921 33.143 48.0531 31.6164 48.284 29.9919L48.2861 29.994ZM64.1396 26.0266C64.3276 24.7123 64.1069 23.6613 63.4735 22.8634C62.8461 22.0715 61.9469 21.6736 60.7801 21.6736C59.6133 21.6736 58.5404 22.043 57.535 22.7899C56.5357 23.5287 55.6815 24.6062 54.9827 26.0185C54.2838 27.4327 53.8506 28.7328 53.6809 29.9144C53.4705 31.3879 53.6932 32.5572 54.343 33.4205C54.9929 34.2797 55.9002 34.7144 57.0732 34.7144C58.5404 34.7144 59.8707 34.0613 61.0498 32.7593C62.7276 30.9164 63.7616 28.6715 64.1396 26.0225V26.0266ZM69.5672 38.5287L77.7147 14.9042H69.6857L71.3124 10.1634H92.896L91.2693 14.9042H83.3425L75.2134 38.5287H69.5672ZM100.761 29.9756H87.3029C87.2599 30.194 87.2272 30.3654 87.2129 30.4776C87.0188 31.845 87.2375 32.947 87.871 33.7858C88.5106 34.6246 89.3689 35.047 90.454 35.047C92.2339 35.047 93.7604 34.0899 95.0274 32.1797L99.7111 33.0123C98.4891 35.0144 97.032 36.5123 95.3196 37.5103C93.6132 38.5144 91.7884 39.0103 89.8511 39.0103C87.1843 39.0103 85.1408 38.1389 83.7185 36.3879C82.3024 34.645 81.7956 32.3328 82.2063 29.4532C82.6069 26.6409 83.7165 24.1368 85.5332 21.945C88.0099 18.9797 91.1549 17.494 94.9681 17.494C97.3978 17.494 99.2186 18.2736 100.428 19.8246C101.642 21.3838 102.045 23.5572 101.646 26.3552C101.456 27.696 101.162 28.9042 100.761 29.9736V29.9756ZM96.7214 26.5879C96.7684 26.343 96.795 26.1593 96.8134 26.0266C97.03 24.5083 96.8665 23.3654 96.3127 22.6062C95.7651 21.847 94.9313 21.4634 93.8217 21.4634C92.712 21.4634 91.6617 21.8919 90.6583 22.7572C89.655 23.6225 88.8784 24.9042 88.3267 26.5879H96.7214ZM122.856 28.3103L128.412 29.2021C126.849 32.3858 124.836 34.8225 122.384 36.5062C119.926 38.1899 117.21 39.0287 114.23 39.0287C110.881 39.0287 108.408 37.9858 106.818 35.8981C105.229 33.8042 104.716 30.7736 105.282 26.8042C105.741 23.5736 106.792 20.6287 108.443 17.947C110.086 15.2715 112.134 13.2246 114.574 11.8062C117.022 10.3858 119.564 9.67969 122.204 9.67969C125.169 9.67969 127.452 10.4981 129.048 12.143C130.644 13.7879 131.402 16.0327 131.324 18.8654L125.846 19.4062C125.78 17.7552 125.378 16.5593 124.628 15.8205C123.878 15.0817 122.795 14.7103 121.374 14.7103C119.817 14.7103 118.295 15.2001 116.803 16.1776C115.311 17.1613 114.014 18.694 112.908 20.7736C111.803 22.8532 111.098 24.9348 110.801 27.0144C110.478 29.2858 110.758 31.0368 111.633 32.2776C112.51 33.5123 113.734 34.1327 115.303 34.1327C116.758 34.1327 118.166 33.645 119.519 32.6593C120.876 31.6817 121.987 30.2287 122.856 28.3083V28.3103Z" fill="white" fill-opacity="0.5"/>
<path d="M145.741 9.34694V39.3612C145.741 43.4184 142.447 46.7082 138.385 46.7082H7.35665C3.2921 46.7082 0 43.4184 0 39.3612V9.34694C0 5.28776 3.2921 2 7.35665 2H138.387C142.449 2 145.743 5.28776 145.743 9.34694H145.741ZM142.553 38.5347V10.1755C142.553 7.30612 140.226 4.98163 137.353 4.98163H8.38658C5.5134 4.98163 3.18584 7.30816 3.18584 10.1755V38.5347C3.18584 41.4041 5.5134 43.7286 8.38658 43.7286H137.355C140.228 43.7286 142.556 41.402 142.556 38.5347H142.553Z" fill="white" fill-opacity="0.4"/>
</g>
</svg>
