<svg width="196" height="48" viewBox="0 0 196 48" fill="none" xmlns="http://www.w3.org/2000/svg">
<g opacity="0.84">
<path d="M3.43447 33.2287L13.0371 28.8303C13.1904 28.2202 12.9222 28.3945 12.703 28.2245C11.6367 27.3954 10.0853 26.7278 8.94451 25.8648C8.69763 25.6777 8.10598 25.3269 8.89982 25.3758L31.67 37.1339L31.7125 38.9557H3.43447V33.2287Z" fill="white" fill-opacity="0.5"/>
<path d="M31.7104 10.4566L31.6678 12.2784L9.43188 23.5029C8.64655 23.554 9.20628 23.1968 9.4787 23.0161C9.96181 22.6951 13.0265 20.9562 13.0329 20.7096L3.43447 16.1815V10.4545H31.7125L31.7104 10.4566Z" fill="white" fill-opacity="0.5"/>
<path d="M31.7083 34.9613L12.5051 26.7066L31.2677 32.608C32.053 33.0267 31.621 34.179 31.7083 34.9613Z" fill="white" fill-opacity="0.5"/>
<path d="M31.7104 25.6394C24.6829 25.2801 17.6767 24.9443 10.6386 24.8358L13.7075 24.3086C19.7156 24.2512 25.7045 23.8728 31.7104 23.5051V25.6394Z" fill="white" fill-opacity="0.5"/>
<path d="M31.7083 18.9791L31.6721 20.8052C24.6191 22.0233 17.4703 23.0097 10.3683 24.0365L31.7061 18.9791H31.7083Z" fill="white" fill-opacity="0.5"/>
<path d="M31.7083 14.4532C31.6465 15.1675 32.0083 16.1773 31.2656 16.5387L12.5029 22.7057L31.7061 14.4532H31.7083Z" fill="white" fill-opacity="0.5"/>
<path d="M31.7083 28.3052C31.8062 28.3988 31.6508 29.8018 31.7083 30.1675L31.0677 30.1441L12.5029 25.6415L31.7061 28.3052H31.7083Z" fill="white" fill-opacity="0.5"/>
<path d="M32.8644 7C33.8712 7 34.6873 7.81615 34.6873 8.82292V39.8644C34.6873 40.8712 33.8712 41.6873 32.8644 41.6873H1.82292C0.816148 41.6873 0 40.8712 0 39.8644V8.82292C0 7.81615 0.816148 7 1.82292 7H32.8644ZM1.82292 8.82292V39.8644H32.8644V8.82292H1.82292Z" fill="white" fill-opacity="0.5"/>
</g>
<g opacity="0.84">
<path d="M68.1705 30.6339L65.729 29.1074C65.161 28.5074 64.5992 27.3625 64.4459 26.5543C64.1211 24.84 64.1047 19.2441 64.3233 17.4584C64.5542 15.5543 66.7955 12.7339 68.8121 12.7339H77.1357V16.0584C76.7455 16.4482 69.3596 15.4564 68.0255 16.2931C66.8936 17.0033 67.1653 19.2686 67.149 20.4033H74.1916C74.8188 20.4033 74.5124 23.1523 74.5757 23.7278H67.7885C67.7333 23.7278 67.3492 23.2523 67.1796 23.8849C66.9222 24.8482 67.3165 27.5625 68.5567 27.5625H77.1357V30.6319H86.0989L82.1782 29.3053C75.2213 25.1543 76.9457 14.8727 85.0181 13.0605C86.2337 12.787 90.557 12.438 91.5704 12.7686C92.3508 13.0237 91.8625 15.1074 91.9913 15.8013H85.9722C84.6585 15.8013 82.1352 17.5237 81.4896 18.74C78.3126 24.736 84.1579 28.4747 89.6866 27.5625V23.4707H83.0281C82.9382 23.1094 83.0873 20.4013 83.2835 20.4013H92.3754C92.4019 20.4013 92.7595 20.7584 92.7595 20.7849V30.6298H94.8087V17.7176C94.8087 17.5462 95.3011 16.3278 95.4359 16.0421C97.3647 11.9298 104.522 11.54 107.206 15.0543C107.501 15.44 108.381 17.1217 108.381 17.4605V30.6298H111.711V27.5605H122.082C122.428 27.5605 124.085 27.0829 124.446 26.8523C125.95 25.8931 125.923 22.7645 124.653 21.6727C123.147 20.3809 118.041 21.1054 115.928 20.9217C110.796 20.4788 108.561 15.836 110.639 11.2747C111.182 10.0809 113.064 8.1278 114.402 8.1278H126.312V10.94H115.683C112.533 10.94 111.36 16.6258 115.029 17.7298C118.691 18.8319 123.837 16.889 126.886 19.6298C128.906 21.4482 128.808 26.5605 126.992 28.4951C126.371 29.1564 123.982 30.3727 123.112 30.3727H116.069V30.6278H137.069L134.267 29.4625C126.551 24.8278 129.897 12.6156 139.001 12.9747C145.282 13.2217 149.082 20.0033 146.518 25.6156C146.216 26.2768 145.043 27.5421 145.002 27.9543C144.951 28.4543 146.077 30.6298 146.418 30.6298H154.229L151.415 28.9645C150.322 27.7013 149.781 26.5564 149.624 24.8727C149.282 21.236 149.836 17.0972 149.654 13.4054C149.903 12.6441 151.771 13.0992 152.435 12.987V24.8768C152.435 25.2707 153.205 26.4747 153.585 26.7972C155.052 28.0441 158.07 27.9298 159.21 26.2707C159.339 26.0829 159.862 24.9768 159.862 24.8768V12.987C160.528 13.0992 162.393 12.6441 162.642 13.4054C162.209 17.6645 164.099 26.1605 160.616 29.2074L158.07 30.6278H164.728L164.757 13.387C164.916 12.687 166.953 13.0747 167.546 12.9849V30.6278H176.764C175.034 28.2707 173.023 26.0074 170.946 23.9156L170.874 20.3992H176.38C178.047 20.3992 178.442 16.0523 176.38 16.0523H170.619C170.782 15.1462 170.116 13.1951 171.258 12.9829C173.025 12.6564 177.408 12.9911 178.899 14.0482C181.143 15.64 181.145 20.0502 179.21 21.9421C177.888 23.2339 177.02 23.1645 175.361 23.4727C175.036 23.5339 174.899 23.287 174.975 23.8441C176.029 24.4768 180.538 30.6237 180.992 30.6237H188.034V16.0482H182.399V12.9788H195.972V16.3033C194.821 16.2707 193.657 16.34 192.503 16.3156C192.141 16.3074 190.85 15.8462 190.85 16.4298V40.5931H40V13.3727C40 13.1768 40.6415 11.4217 40.7989 11.1033C42.6234 7.4278 48.7629 6.99923 51.3945 9.91351C53.1904 7.69923 57.8119 7.50943 60.0614 8.94005C60.9849 9.5278 62.791 11.8176 62.791 12.8625V30.6339H68.1705ZM49.9868 30.6339V13.8849C49.9868 10.236 42.8154 10.2972 42.8154 13.6298V30.6339H49.9868ZM52.8042 30.6339H59.5915C59.7774 30.6339 59.8693 30.3258 59.8693 30.1115C59.8877 24.3992 59.5976 18.6462 59.6548 12.9258C59.142 10.8462 54.8616 10.6829 53.6501 11.7911C53.5459 11.8849 52.8042 13.04 52.8042 13.1176V30.6339ZM105.56 20.4054C105.852 17.0421 104.616 15.8747 101.334 15.9482C98.2738 16.0176 97.4096 17.4237 97.62 20.4054H105.56ZM140.889 20.9278C141.365 21.8013 142.401 24.2319 143.075 24.7564C143.582 25.1502 143.764 24.5237 143.948 24.087C146.504 18.0768 138.832 12.8788 134.361 17.5849C130.159 22.0115 134.882 29.1298 140.646 27.3074C141.23 26.6951 138.333 23.2441 138.329 22.5707C138.327 22.0788 140.53 20.6768 140.889 20.9278ZM105.56 30.6339V23.4747C105.372 23.4074 105.253 23.7298 105.176 23.7298H97.62V30.6339H105.56ZM178.293 32.6809C178.148 32.5298 175.767 32.7747 175.395 32.9829C174.695 33.3727 175.081 34.0768 174.954 34.2074C174.84 34.3258 174.029 34.1258 173.935 34.2156C173.906 34.2421 173.908 34.9543 173.935 34.9809C174.027 35.0707 174.87 34.8931 174.964 34.9809C175.067 35.0768 174.885 37.34 174.96 37.7972H177.012C177.085 37.34 176.907 35.0788 177.01 34.9809C177.091 34.9013 178.007 35.04 178.293 34.9809V34.2156C178.111 34.0258 176.73 34.6502 177.012 33.7053H178.293C178.25 33.4543 178.356 32.7482 178.293 32.6829V32.6809ZM145.768 32.9298H143.459V33.9605H145.768V32.9298ZM163.95 32.9298H161.897V33.9605H163.95V32.9298ZM155.479 33.2258C155.406 33.1482 153.571 33.1237 153.336 33.1727C153.064 33.2298 153.293 33.7564 153.15 33.9135C153.099 33.9686 151.759 34.0625 152.427 34.7258C152.49 34.789 153.072 34.636 153.168 34.74C153.779 35.3992 151.979 38.7666 156.525 37.7931C156.832 36.5115 155.812 37.3421 155.469 36.8788C154.795 35.9666 155.299 34.5645 156.636 34.9829C157.351 33.8135 155.718 34.0992 155.53 33.9135C155.416 33.7992 155.565 33.3176 155.479 33.2278V33.2258ZM79.9512 34.2135V37.7931H82.2578C82.4029 36.4992 81.5959 34.8931 83.4163 34.9645C85.3 35.038 84.2785 37.5135 84.5584 37.7931C84.6483 37.8829 86.2317 37.7298 86.6097 37.7931L86.6444 35.2727C89.7499 33.9727 88.1175 37.14 88.8959 37.6788C89.3127 37.9666 90.416 37.7156 90.9615 37.7911C91.0289 35.3972 91.4437 34.0115 88.4996 33.9809C87.76 33.9727 87.1143 34.4176 86.4564 34.4421C85.1468 34.4911 84.0088 34.2951 82.3436 34.3788C81.6531 34.4135 80.7296 34.0319 79.9471 34.2115L79.9512 34.2135ZM124.491 34.4911C124.038 33.787 118.672 33.6115 117.97 34.7156C117.083 36.1094 121.04 36.3135 121.841 36.5074C122.276 36.6135 122.587 36.2564 122.462 37.0237C120.893 37.4278 119.631 36.4196 118.239 36.5094C117.953 36.5278 117.385 36.3768 117.6 36.8931C118.221 38.3931 123.525 38.4054 124.63 37.0094C125.936 35.3605 121.872 35.5033 121.008 35.2686C120.568 35.1502 120.295 35.4523 120.415 34.7237C121.933 34.4686 122.955 35.5666 124.514 35.2319C124.479 35.0074 124.581 34.6258 124.493 34.489L124.491 34.4911ZM165.742 37.7931C166.148 37.7237 167.952 37.889 168.048 37.7931C168.336 37.5054 167.323 35.3645 169.005 35.0278C171.456 34.536 170.308 37.4972 170.606 37.7931C170.7 37.887 172.506 37.7258 172.913 37.7931C172.782 36.8645 173.365 34.6727 172.163 34.3278C171.724 34.2013 170.414 33.9645 169.991 33.9788C169.462 33.9972 168.915 34.3584 168.394 34.3788C167.625 34.4094 166.606 34.0237 165.742 34.2115V37.7931ZM182.346 34.0196C181.139 34.0666 178.507 34.6217 178.84 36.3237C179.369 39.0156 187.511 38.6237 186.704 35.6747C186.316 34.2523 183.584 33.9707 182.346 34.0176V34.0196ZM45.637 36.5115C44.9443 34.689 44.8279 33.838 42.5621 34.2135C42.5988 34.6951 44.2231 37.6441 44.3947 37.7502C44.5562 37.8523 46.7014 37.8543 46.8731 37.7502C47.0304 37.6523 47.6188 35.8707 47.6862 35.4931C48.0581 35.2033 48.8917 37.6809 49.004 37.7523C49.2022 37.8747 50.802 37.8523 51.0982 37.7523C51.4496 37.6339 53.4744 34.3523 53.315 34.2156C50.612 33.6686 51.4353 35.1217 49.9909 36.5156C49.7845 36.1686 49.2819 34.3237 49.192 34.2441C49.1021 34.1645 47.0345 34.14 46.8158 34.1992C46.5788 34.2625 46.2213 36.3523 45.639 36.5156L45.637 36.5115ZM56.6514 36.2564C56.4921 36.1217 55.9833 34.5564 55.6258 34.336C55.1273 34.0298 54.1649 34.2829 53.5745 34.2135C53.4172 34.3502 55.5073 37.6523 55.7913 37.7482C57.9263 38.4768 58.3819 37.0645 59.0786 35.487C59.9265 37.0135 60.09 38.5054 62.3681 37.7502C62.6909 37.6441 64.5706 34.4462 64.3274 34.2135C63.9004 34.2992 62.505 34.0686 62.3088 34.2421C62.2169 34.3237 61.6182 36.438 61.3812 36.5156C60.8888 36.6788 61.0074 36.2543 60.8868 36.0013C60.7315 35.6768 60.3209 34.336 60.1901 34.2564C59.9981 34.138 58.3676 34.1523 58.0898 34.2482C57.4932 34.4502 57.3195 36.8176 56.6535 36.2584L56.6514 36.2564ZM66.8486 34.2543C66.489 34.0298 65.1242 34.3217 64.5848 34.2156C65.1099 34.7339 66.2949 37.5115 66.6852 37.74C66.9753 37.9094 68.5894 37.8482 68.9428 37.6707C69.5312 37.3768 69.7151 35.5707 70.3444 35.7462C70.5834 35.8135 71.1126 37.6441 71.2842 37.7502C71.6581 37.9829 73.3866 37.8666 73.8177 37.4237C73.9689 37.2686 75.7444 34.3237 75.5952 34.2156C73.4806 33.8462 73.0434 34.6686 72.5183 36.5135C71.0963 35.0196 72.1117 33.8482 69.3085 34.1972C68.5975 34.2849 68.5873 35.9809 68.0398 36.5135C67.5269 36.2503 67.0284 34.3686 66.8445 34.2543H66.8486ZM99.1585 36.2584C99.467 33.2727 92.0056 33.6237 92.0056 36.1298C92.0056 38.4686 97.9061 38.6666 99.1565 37.1502C99.2872 36.5543 98.6253 36.7462 98.2534 36.7605C97.2012 36.8033 95.1969 37.9156 94.4164 36.7707C94.2571 36.536 94.6167 36.2584 94.6759 36.2584H99.1585ZM116 34.7849C115.342 34.0441 111.041 34.0645 110.104 34.5298C109.756 34.7033 109.574 34.7992 109.658 35.2339C111.135 35.636 112.641 34.3421 113.949 34.9135C114.31 35.0707 114.339 34.9768 114.265 35.4911C113.229 35.4707 109.119 35.3523 109.687 37.1156C110.106 38.4176 115.07 37.3747 116.317 37.7951C116.447 37.6645 116.282 35.1033 116 34.787V34.7849ZM132.707 34.2135C132.108 33.9564 130.817 34.6176 130.527 34.6196C130.236 34.6217 129.883 34.2462 129.493 34.2258C128.271 34.1625 126.88 34.0686 125.917 34.9747C123.376 37.3645 129.282 38.8727 130.913 37.536V39.3278H132.709V34.2135H132.707ZM141.67 37.7931V34.2135H139.363C139.357 36.0278 139.906 37.5054 137.442 37.0258C136.321 36.8074 136.952 35.087 136.805 34.2115C134.827 34.1258 134.278 33.9645 134.484 36.1462C134.635 37.7625 135.957 38.0829 137.447 38.0686C138.213 38.0605 138.73 37.6543 139.271 37.6176C139.933 37.5727 140.899 37.987 141.672 37.7931H141.67ZM145.766 34.2135H143.462V37.7931H145.766V34.2135ZM147.303 34.2135V37.7931C147.709 37.7258 149.515 37.889 149.609 37.7931C149.912 37.489 148.77 34.4462 151.914 35.2339C152.29 33.1502 150.363 34.6605 149.742 34.6278C149.364 34.6074 148.152 33.8217 147.303 34.2135ZM163.95 34.2135H161.901V37.7931H163.95V34.2135ZM100.695 38.3054C100.605 38.7441 100.805 38.8258 101.134 39.0156C102.166 39.6094 107.791 39.6135 108.064 38.1482C108.095 37.9788 107.838 34.8584 107.748 34.7115C107.452 34.2421 106.295 34.8809 105.682 34.8564C104.908 34.8258 104.25 34.3931 103.122 34.4564C101.016 34.5727 98.9971 36.5666 101.108 37.7666C101.612 38.0523 102.372 37.8564 102.489 38.3013L100.699 38.3054H100.695ZM78.1573 37.7911C78.3596 36.3605 76.866 36.8135 75.8527 36.7707C75.4747 38.4339 76.9233 37.6319 78.1573 37.7911ZM159.853 36.7666H157.8V37.7972H159.853V36.7666Z" fill="white" fill-opacity="0.5"/>
<path d="M103.483 35.3876C105.401 35.1692 106.472 37.1284 104.449 37.3958C101.889 37.7345 101.452 35.6182 103.483 35.3876Z" fill="white" fill-opacity="0.5"/>
<path d="M130.878 36.736C130.625 37.1421 127.325 37.4605 127.623 35.9074C127.922 34.3503 131.985 34.9523 130.878 36.736Z" fill="white" fill-opacity="0.5"/>
<path d="M184.402 36.736C184.224 37.0217 180.43 37.7176 181.143 35.6564C181.566 34.4319 185.486 34.9849 184.402 36.736Z" fill="white" fill-opacity="0.5"/>
<path d="M97.3647 35.238C97.7447 35.5972 97.3381 35.7013 96.9846 35.7482C96.2266 35.8441 95.3277 35.6809 94.5472 35.7441C94.7249 34.7829 97.05 34.9421 97.3647 35.238Z" fill="white" fill-opacity="0.5"/>
<path d="M114.01 36.0033C114.888 36.9054 111.997 37.2482 111.452 37.0237C111.319 36.2952 111.632 36.6054 112.016 36.4503C112.341 36.3176 113.822 35.8094 114.012 36.0033H114.01Z" fill="white" fill-opacity="0.5"/>
</g>
</svg>
