<svg width="210" height="48" viewBox="0 0 210 48" fill="none" xmlns="http://www.w3.org/2000/svg">
<g opacity="0.84">
<path d="M169.752 9.38551C170.147 7.02841 173.007 4.65794 175.311 4.29925C180.148 4.58442 185.798 3.74005 190.541 4.30593C194.751 4.8072 197.358 8.75502 196.292 12.8343C199.714 13.2954 202.331 12.4154 205.441 14.4339C209.579 17.1207 210.944 22.2961 208.854 26.7719C207.185 30.3454 204.531 35.3114 202.503 38.7178C201.019 41.2131 199.179 43.0734 196.183 43.6036L5.91319 43.6303C1.13029 42.982 -1.13623 38.651 0.559202 34.1663L10.4306 15.2649C10.5645 14.5832 9.62306 13.7277 9.34198 12.9613C7.85178 8.89315 10.9504 4.70472 15.0997 4.27251C26.071 4.8072 37.852 3.48161 48.7317 4.24132C52.1248 4.47748 54.9379 6.6764 55.3394 10.1474C55.4153 10.8047 55.1409 12.5558 55.1855 12.7162C55.2435 12.9189 55.4398 13.0058 55.6406 13.0192L74.6785 12.9947C75.3477 12.7763 74.7945 11.5532 74.8168 11.0809C74.9886 7.2913 77.3733 4.52426 81.2394 4.24132C88.4739 3.71331 97.4776 4.18785 104.792 4.44406C107.797 4.54877 111.101 3.87149 113.397 6.30434C114.856 7.84827 115.231 9.75534 115.184 11.8161C115.173 12.3464 114.713 12.9122 115.456 13.0214L169.754 12.7429C169.875 11.7136 169.591 10.3635 169.754 9.38328L169.752 9.38551ZM113.209 14.7035C112.188 14.7035 113.441 12.03 113.488 11.4352C113.966 5.37309 107.336 6.14394 103.313 5.92338C96.2238 6.47812 88.0456 5.20154 81.0854 5.95457C77.7593 6.31548 75.7783 9.20059 76.7978 12.4266C77.0722 13.2932 78.1296 13.9504 76.6796 14.6166L54.3244 14.7102C52.0914 14.7168 53.6976 12.3107 53.6953 10.876C53.6909 7.76584 50.9826 6.11943 48.174 5.92338C37.4549 5.17258 25.7899 6.43356 14.977 6.01472C12.097 6.46698 10.0759 9.27634 10.9236 12.1325C11.2003 13.0615 12.6324 14.347 12.4785 15.0755C9.97553 20.1083 7.14684 24.9852 4.60816 29.9979C2.29479 34.5673 -1.19869 40.2863 6.47313 41.9527C69.8309 41.8035 133.24 42.2134 196.567 41.7478C198.057 41.3579 199.148 40.4779 200.114 39.3171C202.715 32.7449 213.104 22.2627 204.883 16.1159C201.751 13.7722 198.708 15.1112 195.266 14.7079C193.127 14.4562 194.844 12.3642 194.818 10.8804C194.766 8.15572 192.453 6.19518 189.847 5.93674C186.472 5.60033 179.811 5.65826 176.384 5.92783C173.172 6.17958 171.015 8.27825 171.454 11.6089C171.563 12.431 172.989 14.4005 171.532 14.7035H113.209Z" fill="white" fill-opacity="0.5"/>
<path d="M104.703 18.9966H139.002C139.1 18.9966 140.202 19.3887 140.385 19.4801C141.643 20.1061 142.058 21.0463 141.882 22.432C141.788 23.1695 139.245 27.955 138.69 28.7614C137.76 30.116 135.915 30.82 134.335 30.9448L117.878 30.9381C117.414 31.025 116.797 32.2904 116.665 32.8051H135.823C136.78 32.8051 135.047 35.9308 134.826 36.2895C134.351 37.0603 133.992 37.6507 133.006 37.8312C125.666 37.419 117.653 38.4216 110.394 37.849C101.779 37.1717 110.506 27.8079 111.617 24.0339H99.6548C99.5366 24.475 99.773 24.3502 99.8935 24.4594C100.429 24.9406 101.25 25.1099 100.92 25.9454L97.4106 32.8028H103.485C103.588 32.8028 103.764 33.0835 103.766 33.2595C103.768 33.469 102.113 36.6504 101.868 36.9734C101.482 37.4836 100.949 37.7688 100.311 37.8445C98.4368 38.0695 90.7917 38.0473 89.1855 37.5616C85.4422 36.4254 87.1376 33.1927 88.34 30.7465C91.5591 24.1965 95.4876 17.9718 98.6822 11.4018C98.961 10.8537 99.4719 10.5039 100.061 10.3524C101.257 10.0428 106.778 10.0628 108.161 10.221C110.318 10.4683 108.569 11.8162 108.094 12.587C106.834 14.6322 105.843 16.8846 104.699 18.9944L104.703 18.9966ZM133.677 24.0339H121.153C121.019 24.0339 120.136 26.1504 120.031 26.46H132.461C132.604 26.46 133.786 24.1319 133.677 24.0339Z" fill="white" fill-opacity="0.5"/>
<path d="M29.2834 10.2254C29.9147 10.3279 29.8478 11.0698 29.705 11.5799C29.3659 12.7986 27.3716 15.7728 26.6622 17.1251C26.3565 17.7089 25.9818 18.3572 25.8256 18.9943H34.8917C35.1973 18.6602 35.4137 18.2658 35.6435 17.8782C36.7834 15.9488 37.8676 12.7741 39.1258 11.092C39.5073 10.5818 40.0471 10.2967 40.6829 10.2209C42.2177 10.0382 47.0408 10.016 48.5466 10.2165C49.3296 10.3212 49.5683 10.7824 49.2783 11.522L36.5157 35.5408C35.9313 36.4209 35.5007 37.4613 34.3228 37.6417C32.9687 37.8489 27.6683 37.8489 26.2896 37.6618C25.9394 37.615 25.5914 37.5393 25.4843 37.1449C25.2344 36.2337 31.599 25.7872 32.1879 24.0316H23.1218L16.523 36.2894C16.0613 36.9533 15.5638 37.5571 14.7138 37.6573C13.0184 37.8578 8.75975 37.8356 7.03532 37.664C6.32815 37.5927 5.94668 37.5081 6.05153 36.6771L18.3456 12.8521C17.7344 12.4355 15.1444 11.4841 15.0306 10.847C15.0195 10.7801 15.1466 10.2232 15.1778 10.2232H29.2901L29.2834 10.2254Z" fill="white" fill-opacity="0.5"/>
<path d="M186.575 18.9967H201.247C201.381 18.9967 202.188 19.4222 202.369 19.5559C203.752 20.5584 204.009 22.1424 203.531 23.7042C202.349 27.5651 198.358 32.3306 196.89 36.294C196.281 37.2141 195.83 37.5594 194.71 37.6641C192.823 37.8401 189.716 37.771 187.779 37.6641C186.702 37.6062 186.392 37.6641 186.619 36.4878C188.565 32.2392 191.025 28.2201 193.115 24.0339H183.583L177.265 36.1068C176.748 36.7952 176.183 37.5527 175.271 37.6596C173.609 37.8557 169.471 37.8334 167.78 37.6663C166.97 37.5861 166.631 37.4057 166.798 36.4878L179.269 13.0972C179.367 12.7385 179.202 12.8856 179.048 12.7965C178.376 12.4133 175.733 11.4486 175.728 10.6911C175.728 10.5352 175.9 10.2255 176.016 10.2255H190.035C190.282 10.2255 190.697 11.0476 190.421 11.3483C189.187 13.9059 187.46 16.3098 186.577 18.9967H186.575Z" fill="white" fill-opacity="0.5"/>
<path d="M65.8243 24.0338H46.4785C45.7781 24.0338 45.9945 23.0491 46.1551 22.5902C46.2711 22.2604 47.6988 19.7117 47.9085 19.4912C48.1606 19.2261 48.3301 19.0322 48.7339 19.01L72.8425 18.9899C75.8675 19.4711 76.4787 21.2646 75.3611 23.9447C73.5697 28.2401 70.4733 32.4664 68.6017 36.7885C68.1979 37.39 67.551 37.5994 66.8639 37.6663C59.375 38.3859 50.7283 37.1115 43.1189 37.6551C40.3928 37.2029 39.766 35.6879 40.6895 33.1815C41.8161 30.1182 43.9175 26.4043 47.5962 26.2684L64.4256 26.2751L64.8003 26.0902L65.8265 24.0361L65.8243 24.0338ZM62.6476 30.1917H50.7774C50.6413 30.1917 49.5303 32.2347 49.5616 32.6179H61.5233L62.6454 30.1917H62.6476Z" fill="white" fill-opacity="0.5"/>
<path d="M172.275 18.9966C172.425 19.0411 172.552 19.2929 172.565 19.4644C172.61 20.0014 170.58 23.9603 169.578 23.9536L154.268 24.065L149.94 32.6179H164.8C165.272 32.6179 165.264 33.4734 165.125 33.8744C164.815 34.77 163.318 37.4724 162.361 37.6484C156.081 37.2608 149.124 38.1965 142.924 37.664C138.88 37.3165 139.042 34.6007 140.434 31.6198C141.557 29.2159 143.149 26.4199 144.45 24.0583C145.467 22.2114 147.109 18.9988 149.661 18.9988H172.277L172.275 18.9966Z" fill="white" fill-opacity="0.5"/>
<path d="M95.501 10.4594C95.6259 10.5797 95.695 10.8582 95.6794 11.0342L82.4997 35.9219C81.9174 36.7061 81.3932 37.5327 80.3179 37.6619C78.6069 37.8691 74.5959 37.8156 72.829 37.6641C72.1665 37.6062 71.6891 37.5995 71.6422 36.8175L84.1103 13.2665L84.1393 12.8499C83.4232 12.44 81.391 11.6558 80.9582 11.081C80.7976 10.8671 80.6659 10.6488 80.8667 10.4082L95.5032 10.4616L95.501 10.4594Z" fill="white" fill-opacity="0.5"/>
</g>
</svg>
